<svg width="292" height="292" viewBox="0 0 292 292" fill="none" xmlns="http://www.w3.org/2000/svg">
<rect width="292" height="292" fill="url(#paint0_linear_101_3)"/>
<path d="M71.3157 191.838L71.4322 194.486C73.0449 192.461 75.1526 191.449 77.7542 191.449C82.2149 191.449 84.4646 193.96 84.5046 198.983V212.902H80.8952V198.963C80.8819 197.445 80.53 196.322 79.8408 195.595C79.1648 194.869 78.1049 194.505 76.6609 194.505C75.49 194.505 74.4633 194.817 73.5787 195.44C72.6941 196.062 72.0049 196.88 71.511 197.892V212.902H67.9016V191.838H71.3157ZM93.8688 212.902H90.2594V191.838H93.8688V212.902ZM89.9664 186.251C89.9664 185.667 90.1428 185.174 90.4936 184.772C90.8576 184.369 91.3915 184.168 92.0929 184.168C92.7955 184.168 93.3294 184.369 93.6934 184.772C94.0574 185.174 94.2395 185.667 94.2395 186.251C94.2395 186.835 94.0574 187.322 93.6934 187.711C93.3294 188.1 92.7955 188.295 92.0929 188.295C91.3915 188.295 90.8576 188.1 90.4936 187.711C90.1428 187.322 89.9664 186.835 89.9664 186.251ZM103.058 191.838L103.155 194.174C104.704 192.357 106.791 191.449 109.418 191.449C112.371 191.449 114.381 192.578 115.446 194.836C116.149 193.824 117.06 193.006 118.178 192.383C119.31 191.76 120.643 191.449 122.178 191.449C126.808 191.449 129.162 193.895 129.24 198.788V212.902H125.631V199.002C125.631 197.497 125.287 196.374 124.597 195.634C123.908 194.881 122.75 194.505 121.124 194.505C119.785 194.505 118.673 194.908 117.788 195.712C116.904 196.504 116.39 197.575 116.247 198.924V212.902H112.618V199.099C112.618 196.037 111.115 194.505 108.111 194.505C105.744 194.505 104.124 195.511 103.253 197.523V212.902H99.6436V191.838H103.058ZM143.463 213.291C140.602 213.291 138.274 212.357 136.479 210.488C134.684 208.606 133.786 206.095 133.786 202.954V202.292C133.786 200.203 134.182 198.34 134.976 196.705C135.783 195.057 136.902 193.772 138.332 192.85C139.775 191.916 141.337 191.449 143.014 191.449C145.759 191.449 147.892 192.351 149.414 194.155C150.935 195.959 151.697 198.541 151.697 201.903V203.402H137.396C137.448 205.478 138.053 207.159 139.21 208.444C140.38 209.715 141.863 210.351 143.658 210.351C144.933 210.351 146.013 210.092 146.896 209.573C147.781 209.054 148.556 208.366 149.218 207.509L151.424 209.222C149.654 211.935 147.001 213.291 143.463 213.291ZM143.014 194.408C141.558 194.408 140.335 194.94 139.347 196.004C138.358 197.055 137.746 198.535 137.512 200.443H148.087V200.17C147.983 198.34 147.489 196.926 146.604 195.926C145.72 194.914 144.523 194.408 143.014 194.408ZM192.862 213.291C190 213.291 187.673 212.357 185.878 210.488C184.082 208.606 183.185 206.095 183.185 202.954V202.292C183.185 200.203 183.582 198.34 184.375 196.705C185.182 195.057 186.3 193.772 187.731 192.85C189.174 191.916 190.735 191.449 192.413 191.449C195.158 191.449 197.291 192.351 198.813 194.155C200.335 195.959 201.095 198.541 201.095 201.903V203.402H186.795C186.847 205.478 187.451 207.159 188.608 208.444C189.779 209.715 191.262 210.351 193.057 210.351C194.332 210.351 195.411 210.092 196.296 209.573C197.18 209.054 197.954 208.366 198.617 207.509L200.822 209.222C199.054 211.935 196.4 213.291 192.862 213.291ZM192.413 194.408C190.957 194.408 189.734 194.94 188.745 196.004C187.757 197.055 187.146 198.535 186.911 200.443H197.487V200.17C197.382 198.34 196.887 196.926 196.004 195.926C195.119 194.914 193.923 194.408 192.413 194.408ZM223.122 202.604C223.122 205.809 222.387 208.392 220.918 210.351C219.448 212.311 217.458 213.291 214.947 213.291C212.385 213.291 210.369 212.48 208.9 210.858V221H205.29V191.838H208.587L208.763 194.174C210.233 192.357 212.275 191.449 214.889 191.449C217.425 191.449 219.428 192.403 220.898 194.31C222.38 196.218 223.122 198.872 223.122 202.273V202.604ZM219.512 202.195C219.512 199.82 219.005 197.944 217.991 196.569C216.976 195.193 215.584 194.505 213.815 194.505C211.631 194.505 209.992 195.472 208.9 197.406V207.47C209.978 209.391 211.631 210.351 213.855 210.351C215.584 210.351 216.956 209.67 217.972 208.307C218.999 206.932 219.512 204.894 219.512 202.195ZM240.759 212.902C240.55 212.486 240.382 211.747 240.252 210.682C238.574 212.421 236.57 213.291 234.243 213.291C232.162 213.291 230.452 212.707 229.112 211.539C227.784 210.358 227.122 208.865 227.122 207.062C227.122 204.868 227.954 203.168 229.619 201.961C231.296 200.741 233.65 200.131 236.681 200.131H240.193V198.476C240.193 197.218 239.816 196.218 239.061 195.479C238.307 194.726 237.195 194.349 235.726 194.349C234.437 194.349 233.358 194.674 232.487 195.323C231.616 195.972 231.18 196.757 231.18 197.678H227.55C227.55 196.627 227.921 195.615 228.662 194.641C229.417 193.655 230.432 192.876 231.707 192.305C232.994 191.734 234.405 191.449 235.94 191.449C238.372 191.449 240.277 192.059 241.656 193.279C243.036 194.486 243.75 196.153 243.803 198.282V207.976C243.803 209.91 244.05 211.448 244.544 212.59V212.902H240.759ZM234.769 210.157C235.901 210.157 236.974 209.865 237.989 209.281C239.003 208.697 239.738 207.938 240.193 207.003V202.681H237.364C232.942 202.681 230.731 203.973 230.731 206.555C230.731 207.684 231.108 208.567 231.862 209.203C232.617 209.839 233.586 210.157 234.769 210.157ZM253.382 212.902H249.773V183H253.382V212.902Z" fill="white"/>
<path d="M56.4365 205.504H46.1744L44.2232 211.344H38L48.574 183H53.9981L64.6309 211.344H58.4077L56.4365 205.504ZM47.7549 200.774H54.8571L51.2866 190.164L47.7549 200.774ZM178.374 211.344H172.521L161.128 192.695V211.344H155.274V183H161.128L172.541 201.689V183H178.374V211.344Z" fill="#26C836"/>
<path d="M146.25 175.271C175.107 175.271 198.5 151.929 198.5 123.136C198.5 94.3419 175.107 71 146.25 71C117.393 71 94 94.3419 94 123.136C94 151.929 117.393 175.271 146.25 175.271Z" fill="url(#paint1_linear_101_3)"/>
<g filter="url(#filter0_i_101_3)">
<path d="M157.624 139.382C157.624 140.253 157.505 140.965 157.267 141.519C157.029 142.033 156.712 142.449 156.315 142.765C155.919 143.042 155.462 143.24 154.947 143.359C154.471 143.477 153.976 143.537 153.46 143.537H134.843C134.407 143.537 133.971 143.497 133.535 143.418C133.099 143.299 132.702 143.121 132.345 142.884C132.028 142.607 131.77 142.251 131.572 141.815C131.374 141.341 131.275 140.727 131.275 139.976V125.791H113.193C112.638 127.849 112.222 130.045 111.944 132.379C111.667 134.714 111.528 137.246 111.528 139.976C111.528 141.479 111.191 142.449 110.517 142.884C109.882 143.319 109.129 143.537 108.257 143.537H106.175V139.976C106.175 134.832 106.611 130.302 107.483 126.385C108.395 122.428 109.605 119.006 111.112 116.118C112.658 113.19 114.442 110.757 116.465 108.818C118.487 106.879 120.628 105.316 122.888 104.129C125.148 102.943 127.448 102.092 129.788 101.578C132.167 101.063 134.447 100.806 136.628 100.806C137.976 100.806 138.848 101.142 139.245 101.815C139.641 102.487 139.84 103.219 139.84 104.011V105.554H136.628V139.382H157.624ZM131.275 106.147C127.785 106.939 124.593 108.581 121.699 111.073C118.804 113.526 116.465 116.949 114.68 121.34H131.275V106.147Z" fill="white"/>
</g>
<g filter="url(#filter1_i_101_3)">
<path d="M145.483 143.537C143.818 143.537 142.589 143.121 141.796 142.29C141.042 141.42 140.666 140.035 140.666 138.136C140.666 137.068 140.765 136.039 140.963 135.05C141.201 134.061 141.518 133.111 141.915 132.201V112.676C141.915 112.359 142.034 112.082 142.272 111.845C142.51 111.607 142.787 111.489 143.104 111.489H146.078C146.395 111.489 146.673 111.607 146.911 111.845C147.149 112.082 147.268 112.359 147.268 112.676V123.358C148.378 121.42 149.607 119.639 150.955 118.017C152.343 116.395 153.791 115.03 155.297 113.922C156.804 112.774 158.331 111.884 159.877 111.251C161.424 110.618 162.911 110.302 164.338 110.302C165.369 110.302 166.222 110.44 166.896 110.717C167.609 110.994 168.164 111.37 168.561 111.845C168.997 112.319 169.295 112.893 169.453 113.566C169.612 114.199 169.691 114.891 169.691 115.643V139.382H188.724C188.724 140.253 188.605 140.965 188.367 141.519C188.129 142.033 187.812 142.449 187.416 142.765C187.019 143.042 186.563 143.24 186.048 143.359C185.572 143.477 185.076 143.537 184.561 143.537H167.907C167.47 143.537 167.034 143.497 166.598 143.418C166.162 143.299 165.765 143.121 165.409 142.884C165.091 142.607 164.834 142.251 164.635 141.815C164.437 141.341 164.338 140.727 164.338 139.976V115.049C162.911 115.049 161.225 115.564 159.282 116.593C157.339 117.621 155.476 119.164 153.691 121.222C151.907 123.279 150.38 125.851 149.112 128.937C147.882 132.023 147.268 135.643 147.268 139.798V143.537H145.483Z" fill="white"/>
</g>
<defs>
<filter id="filter0_i_101_3" x="106.175" y="100.806" width="51.4487" height="46.7306" filterUnits="userSpaceOnUse" color-interpolation-filters="sRGB">
<feFlood flood-opacity="0" result="BackgroundImageFix"/>
<feBlend mode="normal" in="SourceGraphic" in2="BackgroundImageFix" result="shape"/>
<feColorMatrix in="SourceAlpha" type="matrix" values="0 0 0 0 0 0 0 0 0 0 0 0 0 0 0 0 0 0 127 0" result="hardAlpha"/>
<feOffset dy="7"/>
<feGaussianBlur stdDeviation="2"/>
<feComposite in2="hardAlpha" operator="arithmetic" k2="-1" k3="1"/>
<feColorMatrix type="matrix" values="0 0 0 0 0 0 0 0 0 0 0 0 0 0 0 0 0 0 0.25 0"/>
<feBlend mode="normal" in2="shape" result="effect1_innerShadow_101_3"/>
</filter>
<filter id="filter1_i_101_3" x="140.666" y="110.302" width="48.0585" height="37.2349" filterUnits="userSpaceOnUse" color-interpolation-filters="sRGB">
<feFlood flood-opacity="0" result="BackgroundImageFix"/>
<feBlend mode="normal" in="SourceGraphic" in2="BackgroundImageFix" result="shape"/>
<feColorMatrix in="SourceAlpha" type="matrix" values="0 0 0 0 0 0 0 0 0 0 0 0 0 0 0 0 0 0 127 0" result="hardAlpha"/>
<feOffset dy="7"/>
<feGaussianBlur stdDeviation="2"/>
<feComposite in2="hardAlpha" operator="arithmetic" k2="-1" k3="1"/>
<feColorMatrix type="matrix" values="0 0 0 0 0 0 0 0 0 0 0 0 0 0 0 0 0 0 0.25 0"/>
<feBlend mode="normal" in2="shape" result="effect1_innerShadow_101_3"/>
</filter>
<linearGradient id="paint0_linear_101_3" x1="146" y1="0" x2="146" y2="292" gradientUnits="userSpaceOnUse">
<stop stop-color="#134199"/>
<stop offset="1"/>
</linearGradient>
<linearGradient id="paint1_linear_101_3" x1="148.109" y1="69.4545" x2="146.258" y2="182.896" gradientUnits="userSpaceOnUse">
<stop stop-color="#3FFF52"/>
<stop offset="1" stop-color="#301E47"/>
</linearGradient>
</defs>
</svg>
