<svg width="643" height="1018" viewBox="0 0 643 1018" fill="none" xmlns="http://www.w3.org/2000/svg">
<path fill-rule="evenodd" clip-rule="evenodd" d="M221 0L240.638 59.15C243.56 59.3833 251.789 62.3 261.327 72.1C270.865 81.9 272.081 90.1833 271.497 93.1H285.173C286.634 93.1 287.043 96.7753 287.617 101.938C288.284 107.928 289.173 115.921 292.186 122.5C297.797 134.75 326.201 159.6 330.059 159.95C333.916 160.3 375.646 181.65 376.698 212.1C377.75 242.55 389.673 276.5 399.141 283.5C406.715 289.1 414.921 350.933 418.077 381.15C431.052 380.333 461.069 382.97 477.341 400.05C497.68 421.4 508.55 491.75 496.628 511L496.156 511.761C484.102 531.228 461.277 568.091 439.819 571.2C422.426 573.72 432.572 630.583 439.819 658.7C432.572 666.633 418.077 687.4 418.077 707H418V1018H639V707V0H221Z" fill="url(#paint0_linear_350_262)"/>
<path d="M373.868 61.6574C366.863 57.1732 370.949 18.6841 373.868 0H639V591L584.012 558.77C568.018 563.908 535.609 573.063 533.928 568.579C532.247 564.095 542.801 519.066 548.288 497.113C548.638 479.947 549.128 444.283 548.288 438.959C547.447 433.634 533.694 408.947 526.923 397.27L515.715 316.695L491.198 328.956L484.544 279.91C480.808 266.481 471.095 239.623 462.128 239.623H449.87V191.278L437.612 199.336C436.094 174.696 433.969 122.964 437.612 113.155C442.165 100.894 382.624 67.2626 373.868 61.6574Z" fill="#191C1F"/>
<path d="M464.5 33.5C459.7 15.9 433.833 11.8333 421.5 12C429.667 15.3333 447.4 22.7 453 25.5C458.6 28.3 463 42.6667 464.5 49.5L479 76.5C476.167 69.5 469.3 51.1 464.5 33.5Z" fill="#262A2F"/>
<path d="M604.647 393.5C605.249 411.733 556.011 438.786 544.797 443.922C554.147 439.137 574.147 428.5 584.147 419C589.299 414.106 604.221 400.317 602.647 393.5L607.647 332C608.088 339.539 604.07 376 604.647 393.5Z" fill="#262A2F"/>
<path d="M459 175C457.8 179 452.167 187.667 449.5 191.5C451.667 188.833 456.2 183.1 457 181.5C458 179.5 460.5 177.5 460.5 177C460.5 176.6 461.833 168.833 462.5 165L463.5 169.5C463.5 163.667 464.2 151.1 467 147.5C469.8 143.9 485.833 138 493.5 135.5C488.5 136.5 464.5 143.5 462.5 147.5C460.5 151.5 460.5 170 459 175Z" fill="#262A2F"/>
<path d="M629.651 231.172C630.545 227.093 635.505 218.024 637.874 214C635.915 216.823 631.829 222.884 631.153 224.54C630.307 226.61 627.966 228.793 628.004 229.292C628.034 229.691 627.293 237.536 626.919 241.409L625.581 236.998C626.023 242.814 626.277 255.398 623.758 259.2C621.239 263.001 605.699 270.099 598.243 273.173C603.153 271.797 626.554 262.999 628.245 258.859C629.936 254.718 628.534 236.272 629.651 231.172Z" fill="#262A2F"/>
<path d="M451 103C445.4 105 440.333 110.167 438.5 112.5C434.9 117.7 435.333 130.667 436 136.5C435.833 133.167 436.8 123.9 442 113.5C447.2 103.1 461 100.5 466 99C463.333 99.5 456.6 101 451 103Z" fill="#262A2F"/>
<path d="M585.549 544.442C585.465 538.496 582.211 532.032 580.594 529.544C576.836 524.458 564.424 520.681 558.687 519.428C561.896 520.346 570.354 524.254 578.518 532.533C586.681 540.813 584.686 554.714 584.491 559.93C584.879 557.245 585.634 550.388 585.549 544.442Z" fill="#262A2F"/>
<path d="M568.5 285C558.5 287.4 529 307 515.5 316.5L516.5 324.5C525.333 317 545.9 300.2 557.5 293C569.1 285.8 581.5 282.5 584.5 280.5C583.333 281 578.5 282.6 568.5 285Z" fill="#262A2F"/>
<path d="M242 61C238 95.3333 236.5 175.7 262.5 222.5C295 281 348 270 371.5 342C395 414 378.526 436.35 365 469C350.5 504 314.5 525.5 331.5 574C348.5 622.5 350.5 684 344 694H364.5C364.167 665.667 360.9 602.5 350.5 576.5C337.5 544 330.5 501 335.5 480.5C340.5 460 373.5 448 365 395C356.5 342 347.5 316.5 340 309C332.5 301.5 295.909 303.127 266 242.5C247.5 205 243 162 254 66.5L242 61Z" stroke="#131618" stroke-width="3"/>
<line x1="347" y1="672.5" x2="364" y2="672.5" stroke="black"/>
<line x1="347" y1="672.5" x2="364" y2="672.5" stroke="#131618"/>
<line x1="346" y1="654.5" x2="363" y2="654.5" stroke="#131618"/>
<line x1="345" y1="636.5" x2="362" y2="636.5" stroke="#131618"/>
<line x1="342" y1="618.5" x2="359" y2="618.5" stroke="#131618"/>
<line x1="339" y1="600.5" x2="356" y2="600.5" stroke="#131618"/>
<line x1="335" y1="582.5" x2="352" y2="582.5" stroke="#131618"/>
<line x1="328" y1="565.5" x2="345" y2="565.5" stroke="#131618"/>
<line x1="326" y1="550.5" x2="343" y2="550.5" stroke="#131618"/>
<line x1="329" y1="535.5" x2="338" y2="535.5" stroke="#131618"/>
<line x1="334" y1="504.5" x2="344" y2="504.5" stroke="#131618"/>
<line x1="334.147" y1="494.522" x2="347.147" y2="498.522" stroke="#131618"/>
<line x1="334.181" y1="484.534" x2="352.181" y2="491.534" stroke="#131618"/>
<line x1="337.197" y1="473.54" x2="358.197" y2="482.54" stroke="#131618"/>
<line x1="343.197" y1="464.54" x2="364.197" y2="473.54" stroke="#131618"/>
<line x1="350.19" y1="455.538" x2="367.19" y2="462.538" stroke="#131618"/>
<line x1="357.186" y1="446.536" x2="372.186" y2="452.536" stroke="#131618"/>
<line x1="362.098" y1="437.51" x2="377.098" y2="440.51" stroke="#131618"/>
<line x1="365.098" y1="428.51" x2="380.098" y2="431.51" stroke="#131618"/>
<line x1="366.062" y1="419.504" x2="382.062" y2="421.504" stroke="#131618"/>
<line x1="367" y1="410.5" x2="384" y2="410.5" stroke="#131618"/>
<line x1="365.945" y1="401.503" x2="383.945" y2="399.503" stroke="#131618"/>
<line x1="364.945" y1="390.503" x2="382.945" y2="388.503" stroke="#131618"/>
<line x1="362.945" y1="377.503" x2="380.945" y2="375.503" stroke="#131618"/>
<line x1="358.948" y1="364.503" x2="377.948" y2="362.503" stroke="#131618"/>
<line x1="355.948" y1="351.503" x2="374.948" y2="349.503" stroke="#131618"/>
<line x1="351.948" y1="338.503" x2="370.948" y2="336.503" stroke="#131618"/>
<line x1="347.942" y1="325.503" x2="364.942" y2="323.503" stroke="#131618"/>
<line x1="342.929" y1="312.505" x2="356.929" y2="310.505" stroke="#131618"/>
<line x1="334.908" y1="305.509" x2="350.908" y2="302.509" stroke="#131618"/>
<line x1="327.8" y1="302.542" x2="343.8" y2="295.542" stroke="#131618"/>
<line x1="318.712" y1="299.592" x2="335.712" y2="287.592" stroke="#131618"/>
<line x1="308.712" y1="293.592" x2="325.712" y2="281.592" stroke="#131618"/>
<line x1="299.712" y1="287.592" x2="316.712" y2="275.592" stroke="#131618"/>
<line x1="289.712" y1="279.592" x2="306.712" y2="267.592" stroke="#131618"/>
<line x1="283.677" y1="270.618" x2="296.677" y2="259.618" stroke="#131618"/>
<line x1="275.664" y1="262.63" x2="286.664" y2="252.63" stroke="#131618"/>
<line x1="270.671" y1="251.624" x2="278.671" y2="244.624" stroke="#131618"/>
<line x1="242.814" y1="160.536" x2="247.814" y2="158.536" stroke="#131618"/>
<line x1="241.842" y1="150.526" x2="247.842" y2="148.526" stroke="#131618"/>
<line x1="240.863" y1="140.519" x2="247.863" y2="138.519" stroke="#131618"/>
<line x1="239.945" y1="127.503" x2="248.945" y2="126.503" stroke="#131618"/>
<line x1="239" y1="114.5" x2="249" y2="114.5" stroke="#131618"/>
<line x1="239" y1="101.5" x2="251" y2="101.5" stroke="#131618"/>
<line x1="239" y1="88.5" x2="251" y2="88.5" stroke="#131618"/>
<line x1="240" y1="75.5" x2="252" y2="75.5" stroke="#131618"/>
<line x1="265.646" y1="240.646" x2="270.646" y2="235.646" stroke="#131618"/>
<line x1="260.6" y1="229.7" x2="263.6" y2="225.7" stroke="#131618"/>
<path d="M421.272 379.419C421.272 379.419 415 382.581 412.5 393C410 403.419 384.272 403.419 384.272 403.419" stroke="#131618"/>
<rect x="30" width="199" height="11" fill="#131618"/>
<path d="M21.5 18C31.1 14.8 33.1667 10.6666 33 8.99997L36 -0.5L177 1V11H141.5C130 11 134 10.5 120 12.5C106 14.5 91 16 79 14C67 12 55 2.49997 40 16C28 26.8 8.33333 21.8333 0 18C3.16667 19.3333 11.9 21.2 21.5 18Z" fill="#131618"/>
<path d="M24.5 29.5C27.3 29.5 29.3333 23.5 30 20.5C33.3333 16.6666 38.6 11.3 33 20.5C27.4 29.7 25 30.3333 24.5 29.5Z" fill="#131618"/>
<path d="M20.2377 -0.529198C21.5245 1.95758 27.7878 1.00598 30.7586 0.219324C35.695 1.41805 42.8818 3.62915 32.1373 2.88373C21.3928 2.13831 19.7273 0.297854 20.2377 -0.529198Z" fill="#131618"/>
<path d="M62.2377 10.4708C63.5245 12.9576 69.7878 12.006 72.7586 11.2193C77.695 12.4181 84.8818 14.6292 74.1373 13.8837C63.3928 13.1383 61.7273 11.2979 62.2377 10.4708Z" fill="#131618"/>
<path d="M115 25C117.463 23.6686 125.094 14.0199 124.254 11.0638C125.363 6.10649 127.444 -1.11898 126.893 9.63721C126.341 20.3934 115.836 25.4953 115 25Z" fill="#131618"/>
<path d="M175 18.5C178.2 18.5 181.333 13.1667 182.5 10.5H218C213.5 10.5 199.5 17 194.5 18.5C189.5 20 182.5 26.5 180 25.5C178 24.7 175.833 20.5 175 18.5Z" fill="#131618"/>
<path d="M96.5821 11.1135C104.394 32.9333 100.5 58.5 100.5 58.5C100.5 58.5 100 72 91.4989 83.3659C82.9977 94.7319 92.5655 103.495 92.5655 103.495" stroke="#131618"/>
<path d="M130.215 8.77727C137.993 31.396 134.057 57.9198 134.057 57.9198C134.057 57.9198 133.535 71.9227 125.015 83.7251C116.495 95.5275 126.049 104.601 126.049 104.601" stroke="#131618"/>
<rect x="79" y="103" width="52" height="5" fill="#131618"/>
<circle cx="109.5" cy="78.5" r="5.5" fill="#131618"/>
<rect x="103" y="85" width="12" height="21" rx="4" fill="#131618"/>
<rect x="108" y="83" width="2" height="4" fill="#131618"/>
<rect x="101" y="107" width="4" height="10" rx="1" fill="#131618"/>
<rect x="108" y="107" width="4" height="10" rx="1" fill="#131618"/>
<rect x="99" y="114" width="4" height="3" fill="#131618"/>
<rect x="106" y="114" width="4" height="3" fill="#131618"/>
<rect x="102.62" y="87" width="3" height="16.2036" rx="1" transform="rotate(16.5668 102.62 87)" fill="#131618"/>
<defs>
<linearGradient id="paint0_linear_350_262" x1="528.5" y1="707" x2="528.5" y2="1018" gradientUnits="userSpaceOnUse">
<stop stop-color="#131618"/>
<stop offset="0.682292" stop-color="#182C3E"/>
<stop offset="1" stop-color="#182C3E"/>
</linearGradient>
</defs>
</svg>
