<svg width="533" height="209" viewBox="0 0 533 209" fill="none" xmlns="http://www.w3.org/2000/svg">
<path d="M310.375 116.459C315.017 124.529 315.417 134.858 311.513 143.281C308.9 145.295 305.657 146.57 302.521 147.693C295.558 150.167 287.903 152.319 280.879 150.014C280.602 155.409 278.266 160.481 274.715 164.493C218.259 167.767 161.649 165.092 105.161 162.387C85.5485 161.449 65.8279 160.512 46.6453 156.239C43.5711 155.562 40.3125 154.671 38.2375 152.304C33.6724 147.108 38.0531 138.455 44.2782 135.427C50.5033 132.414 57.789 132.752 64.506 131.092C64.3677 114.154 82.5819 102.979 99.213 99.7821C105.008 98.6601 111.356 98.1375 116.505 101.027C117.258 101.458 117.95 101.98 118.58 102.58C117.473 96.17 118.288 89.5913 121.962 84.3038C127.972 75.6655 143.035 74.0055 148.645 82.9205C144.726 72.1149 145.448 58.9422 153.164 50.4268C160.88 41.9115 176.358 40.7279 183.429 49.7966C180.924 32.5046 194.035 15.8428 210.159 9.09507C216.768 6.34372 223.977 4.96037 231.14 5.06796H231.155C237.857 8.01913 243.774 12.7379 247.817 18.8708C257.362 33.3654 255.594 54.3003 243.728 66.9657C254.549 64.1836 266.953 70.4702 271.119 80.8301C271.518 78.8165 272.64 77.0028 273.993 75.4503C281.079 67.3653 294.498 67.1194 303.428 73.114C312.358 79.0932 317.185 89.8219 318.583 100.489C309.223 93.7875 295.297 94.387 286.536 101.873C296.25 102.349 305.534 108.036 310.375 116.459Z" fill="#E5BBC1"/>
<path d="M84.0066 114.722C71.3719 114.584 58.7218 115.245 46.1639 116.69C40.0003 117.397 33.8367 118.304 27.6269 118.135C25.6441 118.089 23.569 117.904 21.9244 116.813C19.3575 115.122 18.4967 111.571 19.2806 108.62C20.0645 105.654 22.201 103.225 24.5681 101.288C30.4551 96.462 39.5392 94.2948 45.5952 98.8906C46.5943 92.0506 52.8656 86.8707 59.6901 85.764C61.427 86.7478 63.21 87.6854 64.04 88.5461C67.8059 92.4503 69.22 98.0913 66.361 103.041C68.6051 99.613 73.5699 100.812 76.3827 102.918C80.2254 105.792 82.8845 110.065 84.0066 114.722Z" fill="#E5BBC1"/>
<path d="M96.3951 115.091C92.2604 114.876 88.1411 114.753 84.0064 114.722C82.8843 110.065 80.2252 105.792 76.3825 102.918C73.5697 100.812 68.6049 99.613 66.3608 103.041C69.2198 98.0913 67.8057 92.4502 64.0398 88.5461C63.2098 87.6853 61.4268 86.7477 59.6899 85.764C61.0426 85.5334 62.4259 85.4719 63.7939 85.5949C72.8165 86.3788 76.736 93.9104 83.9449 97.5994C92.5063 101.965 99.0235 102.41 96.3951 115.091Z" fill="white"/>
<path d="M502.069 176.824C496.766 177.593 491.31 177.747 485.961 177.839C483.717 177.885 481.38 177.931 479.413 178.992C477.353 180.083 475.985 182.097 474.418 183.833C464.38 194.885 446.965 193.748 432.24 191.258C418.637 188.967 405.157 186.139 391.662 183.219C385.191 181.805 378.089 181.682 371.449 180.298C348.209 182.635 324.938 183.403 301.897 180.344C302.896 180.421 303.849 180.467 304.787 180.452C334.114 180.037 363.918 176.164 393.06 172.936C397.426 172.459 402.022 171.875 405.588 169.293C408.8 166.956 410.737 163.314 413.104 160.117C419.821 151.063 431.088 145.284 442.339 146.114C453.575 146.928 464.242 154.798 467.455 165.604C476.293 160.608 488.236 161.285 495.936 167.879C498.719 170.261 500.792 173.397 502.069 176.824Z" fill="#E5BBC1"/>
<path d="M359.932 104.158C358.195 103.695 356.268 102.689 356.183 100.926C356.129 99.7928 356.886 98.7492 357.689 97.8915C361.979 93.3064 368.793 91.0992 374.854 92.3304C376.5 92.6655 378.108 93.2357 379.805 93.2419C383.803 93.2572 387.15 90.2538 390.258 87.6808C394.425 84.23 399.216 81.1328 404.561 80.4504C409.905 79.7679 415.834 82.1473 417.614 86.9891C419.618 92.4395 415.605 98.8537 410.183 101.662C404.762 104.47 398.409 104.522 392.398 104.187C382.273 103.622 369.603 106.734 359.932 104.158Z" fill="white"/>
<path d="M57.1925 145.161C51.576 143.819 44.2488 147.608 44.9082 153.344C38.5217 148.254 31.5772 142.94 23.4277 142.416C15.2766 141.892 6.22636 148.725 7.7788 156.744C8.98079 162.952 15.6163 166.582 21.8384 167.708C32.5164 169.64 43.4065 166.794 54.2321 166.054C81.0155 164.227 109.333 175.128 133.994 164.519C123.851 153.755 104.171 161.079 91.5075 160.493C77.2205 159.832 69.9548 148.23 57.1925 145.161Z" fill="#BF7BA0"/>
<path d="M386.047 152.313C388.566 148.092 392.456 144.704 396.985 142.791C391.783 148.221 387.469 154.502 384.268 161.306C381.308 157.892 380.349 153.106 377.458 149.634C374.943 146.612 371.289 144.992 367.587 143.943C365.144 143.252 361.778 143.333 359.655 142.031C362.379 140.356 367.857 141.124 370.89 141.555C373.856 141.976 376.483 142.984 378.899 144.786C379.731 145.405 386.559 151.455 386.047 152.313Z" fill="#E5BBC1"/>
<path d="M215.435 82.5545C221.158 79.694 228.096 79.3805 234.054 81.7122C240.011 84.044 244.893 88.9841 247.153 94.9694C243.049 89.3238 235.794 86.6462 228.817 86.4817C221.839 86.3173 215.009 88.3308 208.365 90.4643C210.237 84.648 209.557 78.0601 206.54 72.7496C205.154 70.3102 203.28 68.1553 201.088 66.4092C199.591 65.2164 197.17 64.4448 196.073 63.0076C199.119 61.6934 204.414 63.8269 206.926 65.6237C212.343 69.4987 214.227 76.3463 215.435 82.5545Z" fill="white"/>
<path d="M375.655 164.416C363.758 165.138 351.876 166.291 340.025 167.736C320.889 161.003 299.401 162.94 278.912 164.247C277.513 164.339 276.114 164.416 274.715 164.493C278.266 160.481 280.602 155.409 280.879 150.013C287.903 152.319 295.558 150.167 302.521 147.692C305.657 146.57 308.9 145.295 311.513 143.281C311.344 143.665 311.159 144.034 310.975 144.403C318.783 144.403 325.777 136.964 325.285 129.186C336.721 135.073 344.836 146.955 346.158 159.728C355.55 154.563 368.323 156.592 375.655 164.416Z" fill="#BF7BA0"/>
<path d="M300.883 146.895C294.994 144.125 289.141 146.929 283.953 149.668C281.359 145.81 280.224 141.326 276.901 137.711C273.944 134.492 270.177 131.968 265.861 131.043C257.067 129.157 246.703 136.169 247.028 145.533C246.992 144.457 238.413 144.781 237.519 144.886C231.482 145.601 225.757 148.532 221.615 152.975C218.191 156.647 214.366 163.341 220.154 166.821C221.724 167.765 223.636 167.759 225.446 167.722C253.436 167.159 281.408 165.578 309.292 162.979C310.22 156.497 306.611 149.592 300.883 146.895Z" fill="white"/>
<path d="M532.027 148.496C531.166 140.596 525.417 134.032 518.962 129.39C506.296 120.306 489.819 116.71 474.525 119.722C465.871 121.428 457.664 125.24 450.67 130.62C449.532 130.205 448.364 129.867 447.196 129.59C431.334 125.732 414.088 127.761 399.547 135.185C389.172 124.334 373.417 118.908 358.569 121.075C366.946 112.406 368.437 97.8806 361.981 87.6898C355.51 77.5144 341.738 72.6727 330.333 76.5614C330.902 63.3273 330.256 47.5723 319.112 40.4096C312.195 35.9828 303.019 36.5054 295.457 39.7025C287.894 42.8996 281.592 48.4331 275.444 53.8897C278.272 38.0271 270.049 21.1347 256.507 12.4042C248.991 7.56243 240.122 5.16461 231.161 5.07239C237.863 8.02356 243.78 12.7424 247.823 18.8753C257.368 33.3698 255.601 54.3047 243.734 66.9701C254.555 64.188 266.959 70.4747 271.125 80.8345C271.525 78.8209 272.647 77.0072 273.999 75.4548C281.085 67.3698 294.504 67.1238 303.434 73.1184C312.364 79.0976 317.191 89.8263 318.59 100.494C309.229 93.792 295.303 94.3914 286.542 101.877C296.256 102.353 305.54 108.041 310.382 116.464C314.229 123.156 315.153 131.409 313.131 138.843C311.192 145.75 302.521 147.692 302.521 147.692C313.8 148.058 319.295 141.467 319.295 141.467L319.292 141.466C323.078 138.588 325.592 133.957 325.291 129.192C336.727 135.079 344.843 146.961 346.165 159.734C355.556 154.569 368.329 156.598 375.661 164.422C363.764 165.144 351.882 166.297 340.032 167.742C342.153 168.48 312.395 173.967 296.317 179.531C298.177 179.823 300.037 180.1 301.897 180.346C302.896 180.423 303.849 180.469 304.787 180.453C334.114 180.038 363.918 176.165 393.061 172.937C397.426 172.461 402.022 171.877 405.588 169.294C408.8 166.958 410.737 163.315 413.104 160.118C419.821 151.065 431.088 145.285 442.339 146.115C453.575 146.93 464.242 154.8 467.455 165.605C476.293 160.61 488.236 161.286 495.937 167.88C498.719 170.263 500.794 173.398 502.069 176.826C506.973 176.15 511.753 174.951 516.226 172.814C525.524 168.355 533.147 158.748 532.027 148.496Z" fill="white"/>
<path d="M323.771 82.2903L329.035 73.7395L329.69 74.1438L328.942 75.3596C334.527 67.0825 335.754 55.7743 331.644 46.6579C326.791 35.8939 314.735 28.6896 302.938 29.5119C291.158 30.3404 280.215 39.1724 276.918 50.5129L276.166 50.3654C277.258 39.9717 276.858 32.2495 274.871 25.3281C272.348 16.5452 266.982 9.46089 260.149 5.89335C252.414 1.85547 242.646 2.82998 236.921 8.21279L236.393 7.6533C242.348 2.0553 252.488 1.03008 260.504 5.21244C267.524 8.87681 273.028 16.1318 275.609 25.1175C277.422 31.4348 277.934 38.3931 277.215 47.3711C281.491 37.1696 291.826 29.5242 302.882 28.7465C314.982 27.8919 327.362 35.2959 332.343 46.3444C337.325 57.3928 334.667 71.5769 326.024 80.0738L323.771 82.2903Z" fill="white"/>
<path d="M405.12 95.9685L405.05 95.203C405.335 95.1677 405.614 95.1292 405.889 95.0893C407.098 94.8264 408.22 94.1424 408.992 93.1725L409.593 93.6521C409.326 93.9887 409.021 94.2946 408.688 94.5667C413.828 93.3647 416.731 91.1559 417.337 87.9772C417.838 85.332 416.476 82.307 413.694 79.8861C408.958 75.7668 401.674 74.2174 394.685 75.8406C388.749 77.2193 382.943 80.6716 377.43 86.0974C376.76 86.7568 375.928 87.5761 374.843 87.6898C374.053 87.779 373.311 87.4593 372.653 87.1826L372.47 87.1057C365.85 84.3467 357.694 85.9698 352.629 91.0452L352.085 90.5011C357.363 85.2121 365.871 83.5259 372.763 86.3956L372.949 86.474C373.575 86.7384 374.173 86.9935 374.762 86.9244C375.579 86.8383 376.276 86.1543 376.889 85.5487C382.505 80.0214 388.434 76.503 394.51 75.0905C401.734 73.4135 409.28 75.0259 414.198 79.3066C417.189 81.9074 418.645 85.2028 418.092 88.1202C417.318 92.1873 413.259 94.7849 406.021 95.847C405.724 95.9101 405.421 95.95 405.12 95.9685Z" fill="white"/>
<path d="M388.04 135.128L387.455 134.629C396.303 124.28 408.523 117.092 421.868 114.393C428.175 113.118 433.404 113.196 437.857 114.622C446.822 117.495 452.691 125.595 458.403 134.355L457.76 134.775C452.127 126.135 446.347 118.148 437.621 115.354C433.293 113.966 428.188 113.897 422.02 115.145C408.844 117.812 396.775 124.908 388.04 135.128Z" fill="white"/>
<path d="M221.687 164.502C217.056 164.208 212.566 162.693 208.705 160.12C207.679 159.437 206.556 158.57 205.995 157.319C205.464 156.14 205.452 154.703 205.956 152.928C207.958 145.888 214.736 141.755 220.414 140.235C226.751 138.538 233.333 139.03 239.713 139.557C239.389 132.766 246.06 127.858 251.787 124.915C254.872 123.327 258.163 121.987 261.334 122.923C263.953 123.696 265.831 125.909 267.015 127.506C270.718 132.502 272.931 138.512 273.386 144.695L273.657 143.536L274.405 143.711L272.631 151.303L272.699 147.668C272.831 140.623 270.592 133.625 266.397 127.964C265.278 126.456 263.515 124.369 261.116 123.66C258.207 122.8 255.083 124.085 252.139 125.599C246.495 128.501 239.896 133.344 240.511 139.943L240.553 140.398L240.096 140.361C233.644 139.829 226.971 139.277 220.612 140.98C215.139 142.446 208.609 146.409 206.696 153.14C206.244 154.735 206.244 155.999 206.697 157.007C207.18 158.08 208.199 158.861 209.132 159.483C212.881 161.981 217.24 163.452 221.737 163.738L221.687 164.502Z" fill="white"/>
<path d="M93.6734 110.787L93.5427 110.03C95.9006 109.625 97.8604 107.801 98.7887 105.152C99.8585 102.098 99.3298 98.7536 97.4438 96.6325C93.5135 92.2134 86.0188 92.8882 81.9456 96.4449L80.4746 97.7284L81.3492 95.9838C83.3981 91.8921 81.921 86.2788 78.1259 83.7242C74.3294 81.1711 68.5731 81.9166 65.5543 85.355L64.9763 84.8478C68.2948 81.0712 74.3863 80.2827 78.5548 83.0863C82.3191 85.6194 83.9576 90.7071 82.585 94.9786C87.479 91.6262 94.382 92.0351 98.0171 96.1222C100.086 98.4493 100.675 102.094 99.5142 105.408C98.4921 108.323 96.3079 110.334 93.6734 110.787Z" fill="white"/>
<path d="M522.609 151.075L522.039 150.559C525.607 146.623 526.676 140.253 524.764 134.334C523.224 129.567 519.95 124.978 514.758 120.303C505.682 112.129 494.802 107.105 484.121 106.153C472.147 105.089 460.478 109.21 452.922 117.185C452.642 117.478 452.364 117.781 452.083 118.087C449.937 120.409 447.72 122.81 444.595 123.022C443.151 123.119 441.769 122.703 440.428 122.3L439.89 122.14C423.236 117.257 403.487 125.254 394.934 140.357L394.264 139.979C402.987 124.578 423.127 116.422 440.106 121.404L440.65 121.565C441.924 121.95 443.244 122.342 444.543 122.257C447.362 122.065 449.474 119.778 451.517 117.566C451.801 117.258 452.081 116.954 452.362 116.657C460.08 108.514 471.983 104.298 484.189 105.389C495.033 106.354 506.071 111.448 515.27 119.733C520.567 124.501 523.911 129.2 525.494 134.099C527.49 140.274 526.357 146.938 522.609 151.075Z" fill="white"/>
<path d="M219.513 82.4962L218.771 82.301C220.345 76.3248 217.438 69.2743 211.858 65.5392C206.746 62.1177 199.756 61.3461 193.154 63.4734L192.919 62.7418C199.74 60.5422 206.981 61.3476 212.287 64.9013C218.128 68.8147 221.167 76.2142 219.513 82.4962Z" fill="white"/>
<path d="M324.682 106.939C321.153 96.1744 309.167 88.7965 297.97 90.4888C294.631 90.9945 292.027 92.1519 290.232 93.9303C288.097 96.0438 287.284 99.2009 288.254 101.606L287.541 101.895C286.44 99.1687 287.304 95.7487 289.691 93.3847C291.605 91.4895 294.351 90.2598 297.854 89.7311C309.402 87.9803 321.773 95.595 325.414 106.7L324.682 106.939Z" fill="white"/>
<path d="M121.408 110.214L120.999 109.917C111.757 103.208 108.05 90.18 112.376 79.6095C112.853 78.4475 113.56 77.0042 114.817 76.1557C116.158 75.252 117.835 75.1782 119.452 75.2243C127.235 75.4641 135.057 77.908 141.616 82.1273C137.892 72.3269 137.048 64.0498 139.034 56.8609C141.286 48.7129 148.908 40.3697 158.67 40.9845C166.258 41.4564 172.955 47.0975 178.616 57.7709C175.713 46.8485 175.206 37.2387 177.058 28.5051C179.585 16.5897 187.155 6.53116 196.814 2.2535C207.781 -2.60517 221.289 0.636508 227.566 9.63297L226.936 10.0726C220.863 1.36661 207.768 -1.75825 197.124 2.95594C187.688 7.13677 180.287 16.9863 177.811 28.6649C175.753 38.3685 176.654 49.1879 180.564 61.738L179.848 62.0116C173.928 49.0757 166.787 42.2588 158.624 41.7515C149.635 41.189 141.979 49.0987 139.776 57.0638C137.76 64.3618 138.74 72.8372 142.772 82.9757L143.238 84.1485L142.197 83.4353C135.559 78.884 127.472 76.2403 119.429 75.9928C117.947 75.9436 116.41 76.0113 115.248 76.7936C114.167 77.5222 113.549 78.7734 113.088 79.9C109.024 89.8264 112.521 102.495 121.044 108.992L124.207 100.506L124.928 100.775L121.408 110.214Z" fill="#E5BBC1"/>
<path d="M17.6115 125.914C16.0068 125.914 14.4005 125.771 12.8035 125.442C6.96112 124.24 0.706795 119.579 0.055078 112.993C-0.426024 108.136 2.26692 102.862 7.26085 98.8859C11.5139 95.4967 16.3711 93.6583 20.9592 93.7905C25.7087 93.8966 30.094 96.1576 32.5549 99.6636C32.5779 93.769 36.6066 88.0741 42.2676 86.2696C48.4235 84.3068 55.6754 87.2134 58.7711 92.8929L58.0963 93.2602C55.1728 87.8943 48.3236 85.1445 42.5028 87.0028C36.6803 88.8596 32.6855 95.0647 33.4079 101.132L33.6585 103.228L32.6855 101.354C30.6028 97.3396 25.9946 94.6728 20.9438 94.559C16.5294 94.4361 11.8536 96.2099 7.74042 99.4869C2.95245 103.3 0.365564 108.322 0.822073 112.918C1.4369 119.134 7.39304 123.545 12.9588 124.689C18.9948 125.929 25.2154 124.432 31.0424 122.626L31.2683 123.361C26.8692 124.724 22.2427 125.912 17.6115 125.914Z" fill="#E5BBC1"/>
<path d="M441.546 208.923C439.812 208.923 437.97 208.822 436.017 208.619C427.478 207.735 419.092 205.72 411.087 202.632C408.288 201.551 405.495 200.323 402.798 199.137C398.78 197.369 394.625 195.541 390.387 194.178C379.345 190.63 367.537 190.136 356.24 192.749L356.066 192C367.502 189.356 379.45 189.857 390.621 193.446C394.897 194.821 399.07 196.656 403.107 198.433C405.798 199.616 408.582 200.841 411.364 201.914C419.306 204.977 427.626 206.977 436.095 207.853C446.012 208.879 452.961 207.277 457.365 202.953C464.765 195.683 462.577 183.465 459.439 174.494L460.166 174.241C463.378 183.422 465.592 195.95 457.903 203.502C454.208 207.134 448.827 208.923 441.546 208.923Z" fill="#E5BBC1"/>
<path d="M271.903 85.5134L271.169 85.2828C273.753 77.0841 269.665 67.1577 262.058 63.1567C254.451 59.1558 243.956 61.4106 238.663 68.1845L238.058 67.7111C243.567 60.6575 254.497 58.3088 262.414 62.4758C270.336 66.6428 274.592 76.9765 271.903 85.5134Z" fill="#E5BBC1"/>
<path d="M122.464 180.051L122.2 179.328C129.98 176.483 137.813 173.442 145.48 170.289C149.917 168.464 152.079 166.266 151.906 163.758C151.797 162.17 150.666 160.775 149.825 159.861C141.376 150.702 127.641 149.907 114.297 149.878C107.292 149.867 98.5579 149.844 91.9592 154.251L91.6611 154.451L91.4413 154.165C86.3889 147.582 79.6427 143.536 72.935 143.067C65.1005 142.514 57.658 147.399 55.9703 154.177L55.2249 153.991C57.0002 146.863 64.7931 141.721 72.9888 142.301C79.8195 142.78 86.6702 146.824 91.8332 153.417C98.5856 149.076 107.282 149.09 114.301 149.111C127.814 149.14 141.733 149.954 150.391 159.342C151.312 160.338 152.549 161.875 152.675 163.706C152.873 166.582 150.551 169.036 145.774 171.001C138.096 174.156 130.254 177.203 122.464 180.051Z" fill="#BF7BA0"/>
<path d="M352.6 162.113L352.474 160.88C351.916 155.416 351.283 149.222 348.295 144.176C345.531 139.504 339.776 135.57 334.117 137.084C332.05 137.635 330.194 138.877 328.894 140.577L328.282 140.11C329.686 138.275 331.685 136.936 333.917 136.34C339.938 134.726 346.043 138.862 348.956 143.782C351.802 148.592 352.563 154.34 353.11 159.568L354.641 156.758L355.316 157.125L352.6 162.113Z" fill="#BF7BA0"/>
</svg>
