<svg width="109" height="43" viewBox="0 0 109 43" fill="none" xmlns="http://www.w3.org/2000/svg">
<path d="M13.7918 27.8916C12.0458 27.3834 10.0596 27.6676 8.59593 28.7469C7.13225 29.8263 6.2647 31.7075 6.51179 33.5092C5.30281 33.3284 4.06432 33.1483 2.8666 33.393C1.66919 33.6376 0.500993 34.3975 0.116969 35.5577C0.0646301 35.7157 0.027504 35.8876 0.0737572 36.0473C0.179653 36.4155 0.637927 36.5278 1.0186 36.5723C5.82012 37.1322 11.7911 37.3577 16.4322 35.7473C20.5847 34.3068 16.462 28.6684 13.7918 27.8916Z" fill="#E5BBC1"/>
<path d="M102.5 36.6754C103.643 36.6471 104.841 36.6042 105.832 36.0334C106.823 35.4625 107.503 34.1775 107.01 33.1459C106.546 32.1764 105.332 31.8624 104.262 31.7604C102.4 31.583 100.509 31.7133 98.6885 32.1435C98.8844 30.6376 97.6831 29.0905 96.1756 28.9073C94.6678 28.7241 93.1314 29.9386 92.961 31.4476C93.38 30.3095 92.9984 28.9752 92.1868 28.0742C91.3753 27.1731 90.1958 26.6674 89.0002 26.4653C87.7821 26.2593 86.3656 26.4194 85.5888 27.3798C85.1859 27.8779 85.0155 28.5181 84.8222 29.1292C83.6443 32.8547 80.0703 37.1027 86.3608 37.075C91.738 37.0506 97.1241 36.8084 102.5 36.6754Z" fill="white"/>
<path d="M87.7972 32.5736C86.8252 30.9787 84.0126 30.6659 82.912 32.2915C83.6718 29.9788 84.085 27.4538 83.3979 25.1189C82.7136 22.784 80.7137 20.7169 78.2839 20.555C75.8568 20.3959 73.3905 22.6891 73.871 25.0741C71.7595 22.8202 68.4718 21.7336 65.4331 22.2783C69.8463 19.7228 72.3096 14.1921 71.2568 9.20105C70.6284 6.21802 68.4721 3.09532 65.6845 1.22693C67.3633 1.32765 69.011 1.72963 70.5362 2.46998C73.2539 3.79094 75.4156 6.25728 76.4213 9.10064C76.8598 10.3379 77.424 12.335 76.9633 13.6395C76.55 14.8126 75.3264 15.3406 74.9747 16.6171C76.7177 14.5558 79.6 13.796 82.178 14.5391C84.7615 15.2849 86.8395 17.3155 88.1328 19.6729C90.311 23.6412 90.3362 28.8505 87.7972 32.5736Z" fill="white"/>
<path d="M88.4984 35.7185C87.7805 36.1822 86.8978 36.3021 86.0515 36.4141C81.295 37.0343 76.3706 37.6432 71.7732 36.2689C70.7006 35.9507 69.5777 35.5204 68.4969 35.8025C67.9272 35.9534 67.427 36.2884 66.9243 36.5958C60.95 40.2546 53.0035 40.4363 46.8698 37.0483C45.8057 36.4616 44.7637 35.7635 43.5712 35.5429C42.4429 35.3335 41.2865 35.5651 40.1609 35.772C31.9549 37.2692 23.4836 37.2914 15.2691 35.8448C14.9395 35.786 14.596 35.7163 14.3419 35.5012C13.5096 34.7888 14.3811 33.4566 15.2776 32.8283C18.8081 30.3452 23.2882 29.2476 27.5673 29.8172C27.0868 27.3396 28.6816 24.8036 30.8604 23.5301C33.0361 22.2563 35.6674 22.0217 38.1894 22.1057C38.1197 19.7818 39.3263 17.4609 41.2674 16.1844C43.2085 14.9078 45.8172 14.718 47.9205 15.7012C49.3227 10.9279 52.1548 6.46176 56.3249 3.74681C59.0734 1.95906 62.4334 1.02912 65.6845 1.22752C68.4719 3.09622 70.6282 6.21893 71.2569 9.20165C72.31 14.1931 69.8464 19.7234 65.4332 22.2789C68.4719 21.7342 71.7595 22.8208 73.8711 25.0747C73.3906 22.6894 75.8569 20.3965 78.284 20.5556C80.7141 20.7175 82.714 22.7846 83.398 25.1195C84.0851 27.4544 83.6719 29.9794 82.9121 32.2921C87.692 27.4379 88.2607 32.8842 88.3864 32.7251C88.8444 32.7893 89.2941 33.0909 89.4478 33.5351C89.7247 34.3415 89.2189 35.255 88.4984 35.7185Z" fill="#E5BBC1"/>
<path d="M37.0141 27.4382C39.5726 27.3838 42.0259 29.3571 42.5213 31.8676C44.1901 31.5073 46.0283 32.0696 47.2096 33.3024C48.3909 34.5351 48.8747 36.3956 48.4438 38.0473C37.1517 36.4245 25.6364 39.7854 14.2919 38.5801C12.7847 38.42 10.9726 37.9079 10.6251 36.4327C10.3765 35.3774 11.0386 34.3312 11.7559 33.5181C14.4291 30.4888 18.2255 28.7881 22.2249 28.5298C26.367 28.262 28.3794 29.6922 31.6566 31.9951C32.3818 29.5677 34.3165 27.4961 37.0141 27.4382Z" fill="#BF7BA0"/>
<path d="M93.206 40.9302C92.7116 41.6815 91.9834 41.9222 91.2881 42.0539C90.876 42.1331 90.461 42.1824 90.0456 42.2155C90.0258 42.1495 90.0094 42.0871 89.9896 42.0244C89.304 39.7866 87.2969 37.8224 84.9538 37.8288C83.3882 37.8355 81.9613 38.6759 80.6528 39.5392C80.3726 39.7236 79.9971 39.9117 79.7299 39.7105C79.5848 39.5986 79.5288 39.4105 79.4664 39.2392C79.2619 38.6954 78.8864 38.2998 78.415 38.0396C79.1566 37.8881 79.9079 37.9407 80.6528 37.9045C80.8506 37.8945 81.0615 37.8683 81.2033 37.6638C81.3485 37.4496 81.3713 37.1167 81.4242 36.82C81.5956 35.8511 82.1755 35.1458 82.8018 34.826C83.428 34.5061 84.1069 34.5128 84.766 34.5326C86.4865 34.5886 87.5245 35.3037 88.9517 36.5364C90.2303 37.6437 92.221 36.9122 93.256 38.1218C93.8058 38.7681 93.7002 40.1819 93.206 40.9302Z" fill="white"/>
<path d="M23.0344 37.1609C21.6252 36.2464 19.7605 36.0782 18.2107 36.7254C17.1986 37.1481 16.3034 37.9368 15.937 38.9705C15.5706 40.0042 15.8232 41.2786 16.6786 41.9648C17.4119 42.553 18.4274 42.6352 19.3649 42.567C22.3111 42.3525 25.1895 40.9098 28.101 41.4116C30.3458 41.7987 33.177 40.6119 29.7174 39.5618C28.4622 39.1808 27.1233 39.6823 25.8717 39.2179C24.7729 38.8102 23.9988 37.7865 23.0344 37.1609Z" fill="#E5BBC1"/>
<path d="M90.0455 42.2155C89.0766 42.2913 88.1044 42.2682 87.1352 42.242C83.8098 42.1562 80.4878 42.0707 77.1621 41.9849C76.615 41.9684 75.9066 41.7542 75.8339 40.9302C75.804 40.5973 75.8999 40.2677 76.0216 39.9874C76.4863 38.923 77.3137 38.3363 78.1374 38.1057C78.2296 38.0792 78.3221 38.0594 78.4143 38.0396C78.8857 38.3001 79.2615 38.6954 79.4657 39.2392C79.5283 39.4105 79.5843 39.5982 79.7292 39.7105C79.996 39.9117 80.3719 39.7236 80.6521 39.5392C81.9606 38.6756 83.3877 37.8351 84.9531 37.8288C87.2965 37.8221 89.3033 39.7866 89.9889 42.0244C90.0093 42.0868 90.0257 42.1495 90.0455 42.2155Z" fill="#E5BBC1"/>
<path d="M60.1899 25.4055C60.7702 23.6761 62.5424 22.4224 64.3664 22.451C62.5428 23.5377 61.1828 25.3757 60.6768 27.4373C59.6693 27.196 59.2277 26.0469 58.5327 25.2789C57.4302 24.0605 55.7469 23.8791 54.2363 23.5818C56.2602 22.4084 59.5582 22.6686 60.1899 25.4055Z" fill="white"/>
<path d="M31.4422 34.7137C29.5026 33.0103 26.7393 32.2924 24.2161 32.8368C24.8898 31.8646 26.2311 31.5463 27.3948 31.7587C28.5584 31.9714 29.5912 32.615 30.5917 33.2458C30.2354 33.0209 31.3035 31.2344 31.4958 31.0868C31.9763 32.0024 31.4498 33.6797 31.4422 34.7137Z" fill="#E5BBC1"/>
<path d="M89.359 26.1541L89.2069 26.1529C89.2239 23.3509 88.7386 20.9052 87.7642 18.8838C86.6143 16.4972 84.7063 14.6562 82.5297 13.8331C80.0916 12.9113 77.3399 13.3121 75.5217 14.8552C74.7333 15.5237 74.1417 16.3733 73.8103 17.3115L73.667 17.261C74.0069 16.2973 74.6143 15.4255 75.4231 14.7393C77.2833 13.1609 80.0941 12.7488 82.5838 13.691C84.7967 14.5275 86.7348 16.3965 87.9017 18.8178C88.8858 20.8599 89.3764 23.3284 89.359 26.1541Z" fill="white"/>
<path d="M88.207 26.8655L88.2722 25.9949L88.4237 26.0062L88.4009 26.3153C89.794 24.1712 90.2069 21.3635 89.4738 18.9154C88.7137 16.376 86.7111 14.1912 84.2478 13.2129C83.1204 12.7649 81.825 12.5218 80.3981 12.4905C78.671 12.4545 76.9678 12.7166 75.3337 13.2755L75.2844 13.1316C76.9362 12.5668 78.6603 12.3009 80.4015 12.3383C81.8466 12.3703 83.1596 12.6167 84.3038 13.0714C86.8091 14.0667 88.8461 16.289 89.6193 18.8722C90.3925 21.4545 89.9123 24.4308 88.3659 26.6391L88.207 26.8655Z" fill="white"/>
<path d="M105.516 34.7593C105.37 34.7593 105.224 34.7545 105.078 34.7453L105.088 34.5938C105.752 34.6355 106.416 34.5801 107.065 34.4298C107.226 34.3923 107.409 34.343 107.541 34.2317C107.68 34.1136 107.772 33.9149 107.799 33.6712C107.861 33.1006 107.585 32.4853 107.059 32.0249C106.608 31.6296 106.057 31.3862 105.366 31.1427C104.54 30.8506 103.561 30.5509 102.537 30.5767C101.486 30.5987 100.545 30.9836 99.9563 31.6327L99.8339 31.7675L99.8239 31.5855C99.76 30.4115 99.3915 29.2677 98.7579 28.2778C98.6417 28.0955 98.5096 27.9114 98.3304 27.7991C98.0961 27.6524 97.7918 27.6354 97.5553 27.64C95.2749 27.6667 93.1543 29.4426 92.728 31.6832L92.5789 31.6546C93.018 29.3456 95.2034 27.5152 97.5538 27.4878C97.8113 27.4836 98.1432 27.5024 98.4113 27.6701C98.6161 27.7985 98.7607 27.9987 98.8866 28.1956C99.5028 29.159 99.8741 30.2655 99.9648 31.4051C100.585 30.8013 101.51 30.4459 102.534 30.4243C103.578 30.3996 104.578 30.7027 105.417 30.9994C106.124 31.2486 106.691 31.4994 107.16 31.9102C107.723 32.4035 108.018 33.068 107.95 33.6879C107.929 33.8875 107.857 34.1641 107.639 34.3479C107.482 34.4812 107.278 34.5366 107.1 34.578C106.579 34.6985 106.048 34.7593 105.516 34.7593Z" fill="white"/>
<path d="M79.9357 38.182L79.7842 38.169C79.982 35.922 81.7247 33.9389 83.9272 33.4532C84.4482 33.3385 84.8867 33.3315 85.2676 33.4319C85.7159 33.5503 86.0984 33.8233 86.382 34.0479C87.1744 34.6762 87.8459 35.4662 88.3407 36.3486L88.4214 36.3267L88.523 36.6968L88.3815 36.7509C87.8852 35.754 87.1613 34.8606 86.2876 34.1677C86.0156 33.952 85.6495 33.6906 85.2293 33.5795C84.8717 33.4852 84.457 33.4925 83.9601 33.6021C81.8208 34.0734 80.128 35.9999 79.9357 38.182Z" fill="white"/>
<path d="M60.8457 25.6836L60.6938 25.6727C60.7629 24.4406 60.0947 23.1927 59.0314 22.5667C57.9682 21.9402 56.552 21.9627 55.5092 22.6206C55.0348 22.9194 54.6395 23.3332 54.2573 23.7331L54.1475 23.6278C54.536 23.2213 54.938 22.8007 55.4279 22.4915C56.5186 21.8041 57.9974 21.7813 59.109 22.4353C60.0937 23.0149 60.7541 24.1059 60.8414 25.243L60.8849 25.247L60.8457 25.6836Z" fill="white"/>
<path d="M36.7883 24.1305L36.6365 24.1214C36.7475 22.0451 36.8626 19.898 37.6525 17.9183C38.5377 15.7011 40.2001 14.1334 42.0992 13.725C43.2273 13.4822 44.4907 13.7448 45.4797 14.4274C46.1796 14.9103 46.6686 15.5575 46.8889 16.2811C47.3584 12.6667 48.1703 9.84431 49.4322 7.42758C51.059 4.31157 53.4861 1.95661 56.2673 0.796323C59.4156 -0.516722 63.0584 -0.18565 65.5487 1.63922L65.459 1.76186C63.01 -0.0322788 59.4253 -0.356358 56.3261 0.936604C53.5777 2.0832 51.177 4.41351 49.567 7.49757C48.2643 9.99251 47.4439 12.9256 46.986 16.7284L46.9193 17.2823L46.8353 16.7306C46.7054 15.8776 46.1936 15.1041 45.3933 14.5524C44.4381 13.8933 43.2187 13.6395 42.1312 13.8735C40.2814 14.2715 38.6601 15.8046 37.7937 17.9749C37.1212 19.6594 36.9432 21.4764 36.8361 23.2666L36.8452 23.2672L36.7883 24.1305Z" fill="#E5BBC1"/>
<path d="M1.33559 35.7538C1.13597 35.7538 0.940614 35.7237 0.764121 35.6616C0.396529 35.5326 0.140613 35.2752 0.043238 34.9374C-0.0970434 34.4496 0.130572 33.9487 0.346319 33.614C1.32433 32.0968 3.46507 31.4958 5.09671 32.2517C4.78085 30.8966 5.03951 29.3843 5.81608 28.0752C6.62368 26.714 7.8926 25.7391 9.29755 25.4004C10.7025 25.0626 12.2763 25.3511 13.6152 26.1943C14.9541 27.0378 15.895 28.3323 16.1963 29.7461L16.0475 29.7774C15.7547 28.4038 14.8385 27.1449 13.534 26.323C12.2295 25.5014 10.6985 25.2187 9.33315 25.548C7.96777 25.8772 6.73353 26.8263 5.94692 28.1525C5.16001 29.4783 4.9184 31.0165 5.28386 32.3725L5.3292 32.5407L5.17522 32.4598C3.5947 31.6294 1.44179 32.1951 0.474124 33.6962C0.275722 34.0041 0.0651483 34.4621 0.189606 34.8948C0.296415 35.2657 0.588541 35.4383 0.814634 35.5177C1.30029 35.689 1.94297 35.5938 2.37751 35.2873L2.46515 35.4115C2.1502 35.6339 1.73453 35.7538 1.33559 35.7538Z" fill="#E5BBC1"/>
<path d="M30.2024 40.624L30.1512 40.0048L30.3028 39.9923L30.3137 40.1237C30.356 39.9007 30.2818 39.6548 30.1546 39.4808C29.9863 39.2507 29.7207 39.0763 29.319 38.9315C28.3589 38.5852 27.2641 38.6013 26.315 38.9759L26.2282 39.01L26.2121 38.9181C26.06 38.0515 25.4511 37.2448 24.4021 36.5202C23.5671 35.9433 22.2523 35.2714 20.7445 35.2927C19.3569 35.3204 18.0916 35.9886 17.4425 37.0369C17.0935 37.6005 16.9204 38.2757 16.9554 38.9379L16.8035 38.9461C16.7667 38.2532 16.9478 37.5466 17.3132 36.9566C17.9894 35.8651 19.303 35.1695 20.7414 35.1406C22.2891 35.111 23.635 35.8057 24.4886 36.3949C25.5363 37.1188 26.1601 37.9279 26.3445 38.8016C27.3073 38.4458 28.4046 38.4394 29.3704 38.7879C29.8022 38.9434 30.0901 39.1351 30.2772 39.3904C30.4893 39.6804 30.573 40.1441 30.3223 40.4688L30.2024 40.624Z" fill="#E5BBC1"/>
<path d="M39.7974 35.0953L39.7079 35.0378C38.5038 34.2606 36.9205 34.0878 35.5761 34.5853L35.5232 34.4426C36.8788 33.9408 38.4694 34.0996 39.7015 34.8543C40.2404 32.873 42.0915 31.3467 44.1436 31.2073C44.2803 31.1979 44.4254 31.176 44.4626 31.0819C44.4644 31.0777 44.468 31.0679 44.4522 31.0497C44.4266 31.0208 44.3853 31.0104 44.374 31.0129L44.2346 31.0089C44.2325 30.9471 44.2617 30.8966 44.3131 30.8735C44.3907 30.8382 44.4924 30.8777 44.5517 30.934C44.6123 30.9919 44.6317 31.0682 44.6041 31.1382C44.5262 31.3339 44.2748 31.3509 44.154 31.3591C42.1316 31.4967 40.3101 33.0249 39.8232 34.9925L39.7974 35.0953Z" fill="#E5BBC1"/>
<path d="M86.9068 33.0169L86.6013 31.9559L86.7474 31.9136L86.8943 32.4251C87.0547 31.738 87.1749 31.0232 87.0526 30.3379C86.926 29.6283 86.4421 28.8249 85.6464 28.6314C84.6958 28.3977 83.7661 29.1128 83.1484 29.6685L82.7732 30.0062L83.0325 29.5729C84.4298 27.2359 84.5902 24.248 83.4509 21.775C82.8344 20.437 81.9118 19.4729 80.8531 19.0606C80.1459 18.7852 79.2841 18.7168 78.2927 18.8555C76.6127 19.0917 75.1542 19.8202 74.1853 20.9062C73.0978 22.1261 72.6818 23.8256 73.1258 25.2354L72.9806 25.2811C72.5208 23.8211 72.9493 22.064 74.0718 20.8052C75.0644 19.692 76.5558 18.9462 78.2714 18.7049C79.2887 18.5619 80.176 18.6337 80.9085 18.9185C82.0043 19.3455 82.9564 20.3372 83.5893 21.7114C84.6888 24.098 84.5993 26.9553 83.3757 29.2732C83.9992 28.7668 84.8236 28.2732 85.6832 28.4832C86.5453 28.6935 87.0678 29.5528 87.2029 30.3111C87.3474 31.119 87.1697 31.9546 86.9756 32.7409L86.9068 33.0169Z" fill="#E5BBC1"/>
<path d="M35.4699 24.2498C34.6139 21.6952 34.6592 19.0999 35.5983 16.9418C36.6448 14.5363 38.8589 12.8027 41.2385 12.5258C43.8086 12.2279 46.4365 13.7871 47.2246 16.0773L47.0807 16.1266C46.3148 13.9013 43.7571 12.3865 41.2561 12.6768C38.9291 12.9479 36.7632 14.6459 35.7377 17.0024C34.8138 19.126 34.77 21.6825 35.6138 24.2014L35.4699 24.2498Z" fill="#E5BBC1"/>
<path d="M50.7095 28.5057L50.4831 28.195C49.7789 27.2285 48.6463 26.6172 47.4525 26.56C46.257 26.5052 45.0717 27.0015 44.2778 27.8949L44.1643 27.7939C44.988 26.8661 46.2211 26.3525 47.4596 26.4078C48.5995 26.4629 49.6861 27.0043 50.4216 27.8715C50.3531 27.0934 50.7235 26.2228 51.4678 25.4368C52.9503 23.87 55.1969 23.0995 57.3298 23.4269L57.3066 23.5773C55.2222 23.2571 53.0273 24.01 51.5785 25.5412C51.1978 25.9432 50.3422 27.0003 50.6185 28.132L50.7095 28.5057Z" fill="white"/>
<path d="M104.333 35.9973L104.299 35.8494C105.246 35.6303 106.197 35.3798 107.124 35.1044C107.703 34.9325 108.347 34.7058 108.652 34.187C108.841 33.8672 108.894 33.446 108.809 32.9357C108.619 31.8071 107.873 30.7052 106.709 29.8334C106.017 29.3158 104.942 28.7102 103.751 28.7601C101.86 28.8405 100.425 30.4715 99.228 31.9942L99.1084 31.9002C100.326 30.3507 101.79 28.6911 103.744 28.608C104.978 28.5587 106.088 29.1792 106.799 29.7117C107.996 30.6072 108.763 31.7435 108.958 32.9111C109.05 33.4579 108.991 33.9131 108.784 34.2646C108.45 34.8306 107.774 35.0701 107.167 35.2502C106.237 35.5262 105.284 35.7779 104.333 35.9973Z" fill="white"/>
<path d="M31.7606 31.9312C31.2904 30.1157 32.1278 28.0255 33.7966 26.8479C35.2761 25.8032 37.3523 25.4764 39.35 25.9751C40.0618 26.1522 40.5697 26.3917 40.9482 26.7289C41.3231 27.0624 41.6152 27.5304 41.8416 28.1594C42.2211 29.2153 42.3017 30.4008 42.0677 31.4978L41.9192 31.4662C42.1468 30.3963 42.0683 29.2406 41.6983 28.2111C41.481 27.6062 41.2026 27.1585 40.8472 26.8424C40.4875 26.5226 40 26.2937 39.3129 26.1227C37.3581 25.6361 35.3284 25.9532 33.8839 26.9723C32.2657 28.1143 31.4529 30.1376 31.9075 31.8934L31.7606 31.9312Z" fill="#BF7BA0"/>
<path d="M48.3938 37.7856L48.2648 37.7065L48.7209 36.7698L48.7559 36.7869C48.9604 36.2102 49.0252 35.5642 48.9339 34.917C48.7906 33.9003 48.2797 32.9944 47.5311 32.4309C46.7828 31.8667 45.7707 31.626 44.7541 31.769C43.7374 31.9123 42.8315 32.4232 42.2673 33.1718L42.1462 33.0802C42.7341 32.2997 43.6766 31.7669 44.7328 31.6181C45.7872 31.4687 46.8422 31.7206 47.6227 32.3088C48.4032 32.8964 48.936 33.8391 49.0848 34.8951C49.2336 35.9519 48.982 37.0054 48.3938 37.7856Z" fill="#BF7BA0"/>
<path d="M14.9258 31.9418C14.8683 31.4114 15.2231 30.9598 15.6151 30.5511C16.1893 29.952 16.7985 29.372 17.4256 28.8279C18.0555 28.2811 18.7499 27.7324 19.5588 27.4242C20.8432 26.9339 22.2892 27.0943 23.6601 27.3408C24.4863 27.4893 25.4381 27.6846 26.2786 28.1231C27.1945 28.6009 27.8442 29.3111 28.108 30.123C28.157 30.2736 28.21 30.3466 28.2699 30.3466C28.2705 30.3466 28.2714 30.3466 28.2723 30.3466C28.2672 30.3439 28.2599 30.3086 28.2504 30.298C28.2535 30.3013 28.2653 30.3083 28.2812 30.3077C28.2988 30.3071 28.3095 30.298 28.3119 30.2949L28.1777 30.2228C28.2148 30.1558 28.2717 30.1473 28.3125 30.1613C28.3871 30.1869 28.4257 30.2934 28.4138 30.3737C28.4029 30.4471 28.3496 30.4964 28.2775 30.4988C28.2748 30.4988 28.2717 30.4988 28.269 30.4988C28.0706 30.4988 27.9927 30.2605 27.9635 30.1698C27.7121 29.3963 27.0889 28.7174 26.2083 28.2579C25.3867 27.8292 24.4482 27.6369 23.633 27.4905C22.2838 27.248 20.8627 27.0897 19.6132 27.5663C18.8266 27.8663 18.1447 28.4055 17.5254 28.9426C16.9016 29.484 16.2958 30.0606 15.7249 30.6564C15.3582 31.0386 15.0262 31.457 15.0771 31.9253L14.9258 31.9418Z" fill="#BF7BA0"/>
<path d="M32.1697 31.0456C32.0452 30.0013 32.4393 28.8997 33.1973 28.1709C33.951 27.4461 35.0711 27.0283 36.6218 26.8941C37.078 26.8545 37.6768 26.8235 38.2611 26.9324C39.8672 27.2334 41.1839 28.6277 41.3917 30.2484L41.2408 30.2678C41.0412 28.7111 39.7762 27.3709 38.2331 27.0821C37.6671 26.9756 37.0813 27.0067 36.6349 27.0456C35.1204 27.1771 34.0301 27.5809 33.3026 28.2811C32.578 28.9773 32.2016 30.0302 32.3206 31.028L32.1697 31.0456Z" fill="#BF7BA0"/>
<path d="M12.7186 37.61C11.5415 37.61 10.3569 37.2661 9.39014 36.6113C9.12175 36.4293 8.75689 36.139 8.69086 35.7221C8.65069 35.468 8.72768 35.2212 8.81684 34.9921C9.70661 32.7086 12.197 31.1841 14.6335 31.4163C14.7786 28.6508 17.9205 26.3893 20.6899 26.0783C23.3897 25.7731 26.2625 27.4129 27.5199 29.973L27.3833 30.0403C26.1533 27.5356 23.3465 25.9338 20.707 26.2295C17.9723 26.5372 14.8666 28.7783 14.7823 31.503L14.7799 31.5855L14.6977 31.5764C12.3004 31.3092 9.83411 32.8008 8.95865 35.0478C8.8774 35.2571 8.8068 35.4805 8.84149 35.699C8.89839 36.0577 9.23069 36.3198 9.47595 36.4859C10.8836 37.4393 12.7654 37.7159 14.3879 37.2089L14.4333 37.3541C13.8816 37.526 13.301 37.61 12.7186 37.61Z" fill="#BF7BA0"/>
</svg>
