<svg width="220" height="100" viewBox="0 0 220 100" fill="none" xmlns="http://www.w3.org/2000/svg">
<path d="M170.181 70.4025C156.062 74.4955 140.941 69.4605 126.173 69.0335C116.088 68.7385 106.076 70.6235 96.0636 71.8455C81.9296 73.5535 67.6476 73.9655 53.4396 73.0525C48.4926 72.7285 41.8966 70.1525 43.0006 65.3375C43.5306 63.0255 45.7836 61.5685 47.9186 60.5525C52.2026 58.5065 56.8556 57.2105 61.5966 56.7685C57.0476 52.3365 58.0926 44.1355 62.6566 39.7195C67.2206 35.3025 74.1556 34.1545 80.4426 35.0085C81.9736 22.8025 90.9846 12.2465 102.263 7.59351C104.928 8.32951 107.49 9.66949 109.89 11.8785C115.426 16.9725 117.428 25.5415 114.749 32.5795C120.668 28.9575 128.839 31.2105 133.639 36.2015C138.453 41.2075 140.485 48.2595 141.398 55.1205C148.45 50.8505 158.315 51.8815 164.337 57.5495C167.855 60.8465 169.886 65.5735 170.181 70.4025Z" fill="#E5BBC1"/>
<path d="M117.845 44.6765C113.414 38.1115 103.275 36.3375 96.8775 41.0095C93.6095 36.2895 88.4055 33.1855 82.9455 31.4105C82.3885 31.2305 81.8255 31.0685 81.2615 30.9105C81.0235 31.7945 80.8335 32.6915 80.6755 33.5975C87.3555 36.7775 93.2335 41.2855 96.7265 48.3315C102.166 43.0345 110.941 41.5155 117.845 44.6765Z" fill="white"/>
<path d="M196.27 42.2815C193.502 41.0885 190.366 41.1915 187.348 41.3095C179.352 41.6195 170.235 43.5655 162.517 42.6045C163.375 41.4575 164.066 40.2105 164.464 38.8175C165.077 36.6705 164.938 34.3705 164.477 32.1855C162.483 22.7405 149.099 10.2655 139.301 17.3975C134.079 10.8995 127.261 6.38552 117.149 5.12052C112.04 4.70852 106.961 5.63553 102.264 7.59353C104.929 8.32953 107.491 9.66952 109.89 11.8785C115.426 16.9725 117.428 25.5415 114.749 32.5795C120.668 28.9575 128.839 31.2105 133.639 36.2015C138.453 41.2075 140.485 48.2595 141.398 55.1205C148.45 50.8505 158.315 51.8815 164.337 57.5495C167.856 60.8475 169.887 65.5735 170.182 70.4025C170.476 70.3285 170.786 70.2255 171.08 70.1375C173.554 69.3425 176.027 68.1935 177.588 66.1325C179.149 64.0565 179.472 60.8765 177.721 58.9775C184.243 59.8165 191.075 58.2415 196.567 54.6045C198.496 53.3385 200.395 51.6305 200.807 49.3485C201.335 46.3745 199.053 43.4885 196.27 42.2815Z" fill="white"/>
<path d="M216.024 87.7385C215.922 88.4385 215.668 89.1385 215.133 89.5965C214.586 90.0545 213.835 90.1816 213.135 90.2836C204.214 91.5816 195.243 92.0776 186.234 92.1926C184.771 88.2986 181.564 85.0666 177.632 83.6666C172.924 81.9996 167.363 83.0556 163.596 86.3136C163.621 83.3996 161.446 80.6126 158.608 79.9126C155.719 79.2126 152.831 80.7266 151.266 83.1326C150.541 78.3736 149.001 75.4336 146.761 73.7926C149.153 73.3976 151.66 73.7165 153.862 74.7345C153.544 71.1455 155.885 67.6715 159.041 65.9285C165.633 62.2635 173.968 64.9745 179.822 68.8685C185.459 72.5965 190.486 79.2265 198.07 78.2725C200.984 77.9035 203.898 77.8655 206.787 78.4375C209.154 78.9085 211.521 79.7486 213.34 81.3266C215.172 82.9156 216.381 85.3465 216.024 87.7385Z" fill="white"/>
<path d="M186.235 92.1925C163.215 92.5105 140.004 90.4615 117.225 93.8215C116.08 93.9865 114.884 94.1775 113.764 93.8215C112.657 93.4655 111.677 92.3965 111.855 91.2515C111.944 90.6405 112.326 90.1185 112.733 89.6475C115.52 86.4915 119.783 84.9395 123.982 84.5705C128.169 84.2145 132.381 84.9145 136.542 85.6265C136.593 81.5675 138.807 77.6225 142.23 75.4585C143.604 74.6055 145.157 74.0335 146.76 73.7915C149 75.4335 150.54 78.3725 151.265 83.1315C152.83 80.7265 155.719 79.2125 158.607 79.9115C161.445 80.6115 163.621 83.3985 163.595 86.3125C167.362 83.0545 172.923 81.9985 177.631 83.6655C181.565 85.0665 184.772 88.2985 186.235 92.1925Z" fill="#E5BBC1"/>
<path d="M28.8446 47.4556C24.1306 49.9636 21.7915 56.5336 24.5445 61.1086C17.7735 57.4496 8.08854 61.6646 6.15254 69.1146C5.82854 70.3606 5.84755 71.9776 6.97755 72.5946C7.48855 72.8736 8.10154 72.8226 8.68354 72.8446C48.5165 74.4086 61.4565 73.5976 74.3475 73.7396C75.4355 71.5746 74.8605 68.7326 73.0875 67.0806C71.3145 65.4296 68.5176 65.0366 66.3106 66.0376C65.4406 66.4326 64.5885 67.0346 63.6355 66.9616C62.2115 66.8526 61.3905 65.3666 60.4725 64.2716C56.8285 59.9266 52.1605 61.9116 48.3745 64.3576C47.5855 59.2416 48.8765 55.4856 44.9045 51.0166C41.0275 46.6536 34.2056 44.6036 28.8446 47.4556Z" fill="#BF7BA0"/>
<path d="M211.241 52.6445L210.741 52.6155C211.238 43.9065 202.539 36.7925 194.102 35.6125C185.193 34.3615 176.311 37.6845 168.47 40.6105L168.051 40.7665L168.137 40.3275C169.739 32.1205 167.101 23.6925 161.418 18.8565C155.172 13.5415 145.531 13.3835 139.927 18.5045L139.553 18.8455L139.509 18.3415C138.834 10.6555 133.223 3.67054 125.863 1.35354C118.506 -0.963461 109.903 1.54753 104.947 7.46053L104.564 7.13953C109.647 1.07553 118.468 -1.50046 126.013 0.877541C133.404 3.20454 139.076 10.1235 139.957 17.8105C145.787 12.8585 155.445 13.1175 161.741 18.4755C167.458 23.3415 170.167 31.7435 168.707 39.9865C176.503 37.0795 185.296 33.8735 194.169 35.1155C202.793 36.3225 211.771 43.3665 211.241 52.6445Z" fill="white"/>
<path d="M212.568 86.6475C211.571 86.6475 210.584 86.5455 209.658 86.4495L209.709 85.9515C211.505 86.1385 213.54 86.3495 215.359 85.7635C216.956 85.2485 218.688 83.8125 218.717 81.8725C218.731 80.9685 218.365 79.9945 217.629 78.9795C214.911 75.2355 209.998 74.1065 206.356 73.8185C201.921 73.4685 197.352 74.0315 193.136 75.4515L192.925 75.5215L192.83 75.3215C190.843 71.1285 186.966 67.9635 182.459 66.8565C177.95 65.7455 173.051 66.7565 169.346 69.5485L169.045 69.1505C172.87 66.2655 177.931 65.2255 182.578 66.3705C187.157 67.4965 191.106 70.6795 193.185 74.9075C197.405 73.5185 201.968 72.9665 206.394 73.3205C210.142 73.6165 215.203 74.7885 218.033 78.6865C218.834 79.7905 219.232 80.8645 219.217 81.8795C219.184 84.0655 217.273 85.6715 215.512 86.2385C214.556 86.5465 213.558 86.6475 212.568 86.6475Z" fill="white"/>
<path d="M98.5456 42.6556L98.6256 42.2706C99.4866 38.1346 97.5046 33.5216 93.9116 31.3016C90.3186 29.0786 85.3056 29.3686 81.9926 31.9876L81.6816 31.5946C85.1556 28.8516 90.4086 28.5486 94.1746 30.8766C97.8286 33.1346 99.8936 37.7566 99.1866 41.9906L100.923 41.5826L101.038 42.0686L98.5456 42.6556Z" fill="white"/>
<path d="M168.92 47.0765L168.561 46.7295L170.543 44.4605C173.058 40.9425 174.413 36.0335 174.669 29.5645C174.818 25.7975 174.697 20.9675 172.408 17.0205C169.929 12.7455 165.015 9.7535 158.926 8.8125C149.826 7.4045 140.294 10.7335 134.05 17.5015L133.683 17.1625C140.038 10.2745 149.733 6.88251 159.002 8.31751C165.241 9.28251 170.284 12.3635 172.839 16.7695C175.193 20.8285 175.32 25.7505 175.168 29.5845C174.913 36.0025 173.586 40.9205 171.127 44.4985L171.153 44.5205L170.936 44.7695C170.331 45.6155 169.659 46.3825 168.92 47.0765Z" fill="white"/>
<path d="M183.175 89.6446L182.677 89.5996C182.985 86.2346 181.447 82.7386 178.758 80.6916C176.068 78.6456 172.286 78.0936 169.127 79.2886C168.968 79.3486 168.807 79.4126 168.645 79.4776C167.596 79.8946 166.411 80.3666 165.319 79.8806C164.844 79.6676 164.481 79.3066 164.131 78.9576C164.019 78.8466 163.906 78.7336 163.791 78.6286C161.747 76.7496 158.143 76.6116 155.4 78.3036C153.142 79.6986 151.349 82.1406 150.071 85.5656L149.602 85.3896C150.92 81.8596 152.783 79.3316 155.138 77.8776C157.686 76.3056 161.594 75.9316 164.128 78.2606C164.248 78.3706 164.365 78.4876 164.482 78.6036C164.815 78.9356 165.129 79.2496 165.522 79.4236C166.415 79.8256 167.455 79.4116 168.458 79.0126C168.623 78.9476 168.787 78.8816 168.949 78.8206C172.267 77.5676 176.236 78.1476 179.058 80.2946C181.883 82.4426 183.498 86.1136 183.175 89.6446Z" fill="#E5BBC1"/>
<path d="M171.934 62.8275C171.13 56.7125 166.167 51.3475 160.133 50.0715C155.474 49.0875 146.678 48.9815 142.602 51.8815C142.066 52.2635 141.631 52.6865 141.3 53.1485C141.007 54.8365 140.615 56.3905 140.203 57.7515L139.716 57.6475L140.051 54.9925C140.145 54.2515 140.404 53.5695 140.826 52.9505C141.527 48.8225 141.614 43.9025 139.893 39.0895C137.658 32.8415 132.482 28.0855 126.708 26.9735C120.319 25.7435 113.576 29.3705 111.665 35.0535L111.19 34.8935C113.179 28.9805 120.188 25.2095 126.801 26.4825C132.746 27.6275 138.071 32.5095 140.364 38.9215C142.005 43.5085 142.035 48.1825 141.45 52.1995C141.705 51.9445 141.992 51.7025 142.312 51.4735C146.508 48.4875 155.486 48.5785 160.236 49.5825C165.886 50.7765 170.628 55.4405 172.085 61.0085L172.548 61.0385L172.431 62.8105L171.934 62.8275Z" fill="#E5BBC1"/>
<path d="M55.6916 59.6245C53.8026 54.3175 53.5276 48.3905 54.9186 42.9335C56.3286 37.3905 60.5126 31.9635 65.8766 31.9635C66.0526 31.9635 66.2286 31.9685 66.4066 31.9815C71.3526 32.3095 74.7386 36.9415 77.1356 40.9395L76.7056 41.1975C74.3716 37.3025 71.0876 32.7935 66.3726 32.4795C61.0396 32.1355 56.8076 37.5325 55.4016 43.0565C54.0356 48.4185 54.3056 54.2435 56.1616 59.4565L55.6916 59.6245Z" fill="#E5BBC1"/>
<path d="M112.676 99.5786C110.827 99.5786 108.99 99.3966 107.181 98.9356C105.844 98.5946 105.062 98.0436 104.787 97.2496C104.538 96.5296 104.777 95.7576 105.045 95.0976C108.494 86.5596 118.872 81.5546 127.701 84.1546L127.56 84.6346C118.957 82.0966 108.865 86.9756 105.507 95.2846C105.263 95.8886 105.064 96.5236 105.259 97.0856C105.474 97.7086 106.143 98.1546 107.303 98.4506C112.46 99.7616 117.904 98.7536 123.17 97.7756C123.895 97.6406 124.616 97.5076 125.336 97.3796C137.544 95.2086 149.977 94.8556 162.291 96.3286L162.232 96.8246C149.966 95.3576 137.583 95.7106 125.423 97.8716C124.704 97.9996 123.983 98.1336 123.261 98.2676C119.773 98.9166 116.204 99.5786 112.676 99.5786Z" fill="#E5BBC1"/>
<path d="M11.4626 69.2576C10.2526 69.2576 9.04565 69.1506 7.86465 68.9336C5.99865 68.5916 4.86065 67.8556 4.48165 66.7436C4.21965 65.9756 4.38967 65.1506 4.56567 64.5186C6.19767 58.6736 12.7196 54.7485 18.6436 55.9705C18.4256 50.8815 20.0187 44.3126 25.2577 42.0576C27.4027 41.1346 29.9917 41.0216 32.9517 41.7216C38.0657 42.9336 42.5626 46.2186 44.9806 50.5106C47.5476 55.0656 47.7216 60.8506 45.4236 65.2496L44.9806 65.0175C47.2026 60.7655 47.0316 55.1666 44.5456 50.7566C42.1946 46.5836 37.8177 43.3875 32.8367 42.2075C29.9847 41.5325 27.5006 41.6376 25.4546 42.5166C20.3396 44.7176 18.8667 51.3015 19.1597 56.2715L19.1797 56.6076L18.8516 56.5296C13.0946 55.1486 6.63966 58.9476 5.04766 64.6536C4.88966 65.2166 4.73767 65.9436 4.95367 66.5826C5.26967 67.5106 6.27867 68.1366 7.95367 68.4416C11.5637 69.1056 15.4267 68.7165 18.8307 67.3495L19.0167 67.8145C16.6407 68.7685 14.0456 69.2576 11.4626 69.2576Z" fill="#BF7BA0"/>
<path d="M78.7816 75.2615C78.6416 75.2615 78.5026 75.2525 78.3626 75.2365L76.9966 75.0745L80.5866 74.1925C80.8126 74.0435 81.0286 73.8645 81.2346 73.6585C82.2656 72.6245 82.8226 71.0615 82.6546 69.6765C82.2936 66.7055 79.6666 64.5875 78.1326 63.5895C73.8456 60.7975 67.3216 60.2305 64.2576 64.1745L64.0896 64.3915L63.8896 64.2035C61.3316 61.8125 57.1556 62.4395 54.5236 64.2455C51.6106 66.2445 49.7946 69.4685 48.1916 72.3115L47.7556 72.0655C49.3046 69.3175 51.2316 65.8975 54.2396 63.8325C56.9656 61.9625 61.2686 61.2995 64.0306 63.6585C67.3686 59.6605 73.9096 60.2455 78.4056 63.1685C80.3676 64.4455 82.7846 66.6015 83.1506 69.6145C83.3366 71.1455 82.7236 72.8715 81.5876 74.0105C81.4006 74.1965 81.2056 74.3635 81.0036 74.5105L81.0246 74.5985L80.7876 74.6565C80.1646 75.0535 79.4796 75.2615 78.7816 75.2615Z" fill="#BF7BA0"/>
<path d="M5.23154 71.7716C4.84954 71.7716 4.45754 71.7016 4.06254 71.5606C2.73554 71.0876 1.45755 69.8326 0.806555 68.3646C-0.608445 65.1736 -0.13045 61.1686 1.99555 58.3996C4.06155 55.7096 7.65956 54.2196 11.0226 54.6396C11.0216 49.8376 14.6485 45.1766 19.5755 43.7146C24.1615 42.3496 29.6755 43.7056 33.6275 47.1626C37.1635 50.2596 39.5565 54.9046 40.3635 60.2456L39.8695 60.3196C39.0795 55.0956 36.7456 50.5566 33.2976 47.5396C29.4746 44.1926 24.1435 42.8836 19.7185 44.1926C14.9015 45.6236 11.3795 50.2346 11.5285 54.9196L11.5385 55.2216L11.2395 55.1746C7.96754 54.6546 4.41155 56.0756 2.39255 58.7036C0.374553 61.3316 -0.0794448 65.1326 1.26356 68.1606C1.86156 69.5106 3.02654 70.6596 4.23054 71.0886C4.99554 71.3616 5.71355 71.3306 6.36155 71.0016L6.58854 71.4466C6.16254 71.6636 5.70454 71.7716 5.23154 71.7716Z" fill="#BF7BA0"/>
</svg>
