<svg width="144" height="80" viewBox="0 0 144 80" fill="none" xmlns="http://www.w3.org/2000/svg">
<path d="M140.652 59.4928C140.147 60.5901 138.97 61.1909 137.841 61.6234C132.017 63.8661 125.586 63.722 119.362 63.2894C116.27 63.0732 113.178 62.7928 110.094 62.4885C109.934 60.3658 109.55 58.2913 108.725 56.3369C107.083 52.396 103.182 49.0639 98.9368 49.4884C104.456 43.3128 106.394 33.9733 103.206 26.3319C100.01 18.6905 91.5517 13.42 83.3416 14.5174C75.1395 15.6227 68.2029 23.4244 68.6515 31.6905C64.0698 28.3424 56.933 29.2555 53.3526 33.661C52.8881 28.5106 49.8203 23.4404 45.0224 21.51C44.2775 21.2136 43.5005 21.0054 42.7075 20.8932C42.7636 20.8532 42.8197 20.8211 42.8837 20.7891C47.7698 18.242 54.3619 19.6277 57.8141 23.929C58.3748 20.4687 60.2812 17.3609 62.588 14.7256C72.2159 3.71208 89.7815 0.636295 102.573 7.72502C115.373 14.8218 122.077 31.3381 117.84 45.3473C122.269 43.1046 127.756 43.0886 132.194 45.3073C136.639 47.526 139.923 51.9154 140.796 56.8014C140.965 57.6986 141.037 58.6597 140.652 59.4928Z" fill="white"/>
<path d="M110.095 62.4885C100.843 61.5673 91.6078 60.4139 82.3164 60.0855C70.614 59.669 58.8955 60.5581 47.1851 60.7744C36.3718 60.9666 25.5425 60.5901 14.7612 59.629C13.0952 59.4848 11.357 59.3006 9.91522 58.4355C8.48146 57.5624 7.43216 55.8083 7.93678 54.1983C8.922 51.0184 22.0181 52.8446 24.0366 48.7436C26.1512 44.4743 21.2011 39.6444 27.1685 36.0079C30.02 34.2777 33.6004 34.5261 36.9165 34.8304C35.3786 29.608 37.9337 23.4965 42.7076 20.8933C43.5006 21.0054 44.2775 21.2137 45.0225 21.51C49.8204 23.4404 52.8881 28.5106 53.3527 33.661C56.9331 29.2556 64.0699 28.3424 68.6516 31.6906C68.203 23.4244 75.1395 15.6228 83.3416 14.5174C91.5517 13.4201 100.01 18.6906 103.206 26.332C106.394 33.9734 104.456 43.3129 98.9368 49.4885C103.182 49.0639 107.083 52.3961 108.725 56.3369C109.55 58.2913 109.934 60.3659 110.095 62.4885Z" fill="#E5BBC1"/>
<path d="M30.8264 53.8282C34.7176 54.8855 38.1242 57.6152 40.0033 61.182C39.5227 60.2689 19.8745 61.4528 17.5325 61.3142C12.9468 61.0419 6.55253 61.9894 4.69104 56.7934C0.573971 45.3017 15.7398 46.0378 19.2682 55.3573C22.8999 53.5807 26.8239 52.7404 30.8264 53.8282Z" fill="#BF7BA0"/>
<path d="M89.5429 49.1143C91.885 48.3133 94.3616 47.908 96.8359 47.9208C95.6921 46.8595 94.0797 46.4142 92.5194 46.4094C91.2714 46.4054 89.619 47.244 88.4744 47.083C86.6738 46.8299 87.5596 46.9396 86.1988 45.485C86.1988 45.485 82.7689 37.0138 75.0266 37.0138C82.1225 39.8341 85.7703 47.0478 86.1772 51.4492C86.9886 50.2453 88.194 49.5757 89.5429 49.1143Z" fill="white"/>
<path d="M124.109 51.9594C122.489 50.5705 116.554 53.6054 115.162 54.4985C112.675 56.0957 111.455 58.5459 109.419 60.4074C104.38 53.7072 118.925 47.5139 124.109 51.9594Z" fill="#E5BBC1"/>
<path d="M120.861 74.4783C110.16 74.4599 99.2212 72.1835 89.1977 75.7495C88.1516 73.4963 88.3758 70.7001 89.7736 68.6496C91.2033 66.559 93.0897 65.899 94.4978 64.2169C95.6152 64.9474 96.9256 65.7812 98.2544 66.9987C97.7234 63.7659 101.551 60.916 104.689 61.8596C107.834 62.8024 109.57 66.5654 108.867 69.7653C111.683 67.6587 115.934 68.6912 118.447 71.1518C119.43 72.1234 120.213 73.2568 120.861 74.4783Z" fill="#E5BBC1"/>
<path d="M130.17 73.3274C129.236 73.9017 128.116 74.0763 127.019 74.1948C124.977 74.4151 122.928 74.4904 120.861 74.4784C120.213 73.2569 119.43 72.1235 118.447 71.1519C115.934 68.6913 111.683 67.6588 108.867 69.7654C109.57 66.5654 107.834 62.8024 104.688 61.8596C101.551 60.9161 97.7223 63.766 98.2542 66.9988C96.9253 65.7813 95.6149 64.9474 94.4976 64.2169C94.7202 63.943 94.9349 63.6378 95.1327 63.2998C97.1392 59.8604 96.8388 57.7153 101.663 56.7582C103.135 56.469 104.672 56.3881 106.117 56.7646C110.4 57.8771 112.662 62.438 114.383 66.5134C114.954 64.1393 118.298 63.4472 120.42 64.6527C122.542 65.8662 123.693 68.2227 124.715 70.435C124.996 69.1919 126.41 68.5511 127.683 68.4317C129.316 68.2699 131.323 68.9636 131.612 70.58C131.803 71.6605 131.104 72.7458 130.17 73.3274Z" fill="white"/>
<path d="M113.93 44.0721L113.582 43.8751L114.852 41.4705L114.89 41.4906C119.943 31.2588 120.394 16.7265 111.303 7.65369C104.966 1.3275 94.766 -1.13953 85.3232 1.36595C76.8535 3.61432 68.9646 9.73145 63.6797 18.149L63.3401 17.936C68.6779 9.43268 76.6533 3.25227 85.219 0.978273C94.798 -1.56326 105.148 0.944632 111.585 7.37014C121.551 17.3144 120.231 33.7018 113.93 44.0721Z" fill="white"/>
<path d="M137.813 58.9097C137.699 58.9097 137.584 58.9057 137.47 58.8976L137.498 58.4979C138.926 58.5989 140.413 58.0077 141.551 56.8784C142.688 55.7482 143.289 54.2751 143.199 52.8366C143.13 51.7288 142.707 50.5474 141.906 49.2249C139.371 45.035 134.769 42.1266 129.896 41.6356C125.022 41.1462 119.933 43.075 116.612 46.6738L116.318 46.4023C119.723 42.7129 124.941 40.7353 129.937 41.2375C134.932 41.7405 139.65 44.7226 142.249 49.0175C143.084 50.3968 143.525 51.6375 143.599 52.8109C143.697 54.3649 143.053 55.95 141.834 57.1619C140.703 58.2841 139.255 58.9097 137.813 58.9097Z" fill="white"/>
<path d="M112.646 43.6916L113.634 40.3051L113.915 40.3876C116.69 34.5692 117.688 28.2927 116.728 22.5536C115.583 15.7236 111.6 9.73702 106.073 6.53948C100.168 3.12408 92.6018 3.18815 87.2416 6.70048L87.0229 6.36567C92.5041 2.77244 100.242 2.70276 106.273 6.19345C111.903 9.44946 115.959 15.541 117.122 22.4871C118.175 28.7781 116.909 35.701 113.559 41.9807L112.646 43.6916Z" fill="white"/>
<path d="M86.821 48.0201L86.9084 47.6188C87.6773 44.1057 86.9348 40.6391 84.9227 38.3458C82.6735 35.7843 78.7295 35.0482 76.1255 36.7046L75.9116 36.3666C78.671 34.6092 82.8506 35.3774 85.2231 38.0815C87.2432 40.3835 88.0385 43.8069 87.3801 47.3073C90.1892 45.96 93.3443 44.495 96.6604 44.1169C100.485 43.6812 104.098 44.9195 106.09 47.3473L105.78 47.6012C103.873 45.276 100.395 44.0929 96.7052 44.5142C93.313 44.9011 90.0602 46.4638 87.1903 47.8423L86.821 48.0201Z" fill="white"/>
<path d="M138.08 76.1228L137.854 75.7928C138.399 75.4179 138.931 74.9918 139.128 74.4151C139.298 73.9168 139.204 73.3546 139.077 72.8203C138.722 71.3273 137.773 68.6287 135.407 67.3287C133.216 66.1257 130.565 66.4845 128.001 66.8313L127.487 66.9002C126.976 66.9683 126.455 66.9827 126.096 66.6367C125.86 66.41 125.775 66.0952 125.702 65.8165L125.678 65.7276C124.885 62.8072 121.897 61.2068 119.367 60.683C117.965 60.393 115.955 60.252 114.346 61.2308C112.98 62.0622 112.014 63.9878 112.756 65.5313L112.395 65.7051C111.533 63.9093 112.629 61.8075 114.139 60.8896C115.859 59.8419 117.976 59.9869 119.448 60.2913C122.096 60.8399 125.224 62.5276 126.065 65.6226L126.089 65.7139C126.155 65.9639 126.218 66.1985 126.373 66.3475C126.61 66.5758 127.025 66.5566 127.434 66.5021L127.948 66.4332C130.576 66.0784 133.294 65.7099 135.6 66.9763C138.102 68.3508 139.097 71.1695 139.467 72.7274C139.608 73.3201 139.709 73.9497 139.507 74.544C139.273 75.2321 138.683 75.7095 138.08 76.1228Z" fill="white"/>
<path d="M63.1078 24.6635C62.9276 24.6635 62.6865 24.569 62.4118 24.2157C59.5266 20.5032 56.3924 18.1843 53.0947 17.3232C49.5816 16.4053 44.9254 17.3377 42.8212 20.894L42.4768 20.6898C44.6835 16.962 49.5407 15.98 53.1964 16.9356C56.5814 17.8199 59.7877 20.186 62.7274 23.9698C62.7642 24.0171 62.805 24.0635 62.8459 24.1052C62.8731 23.9346 62.9957 23.8657 63.0942 23.8585C63.2816 23.8513 63.457 24.0307 63.5059 24.2117C63.5516 24.3807 63.4827 24.5377 63.3297 24.6122C63.2744 24.6395 63.1991 24.6635 63.1078 24.6635ZM62.8635 24.1236C62.9396 24.1965 63.0173 24.251 63.0838 24.2614C63.0798 24.2574 63.075 24.2534 63.071 24.251C63.0846 24.259 63.1262 24.2662 63.1703 24.2462C63.2175 24.2245 63.2384 24.1845 63.2408 24.1693L62.8635 24.1236Z" fill="white"/>
<path d="M51.0794 33.5721C50.8688 30.425 53.0507 27.2363 56.3844 25.8177C59.0108 24.6996 62.2132 24.5858 65.9041 25.4773C66.7059 21.3642 69.8618 17.554 74.5972 14.9972C80.0856 12.0344 86.2123 11.5097 90.9838 13.5955C96.5042 16.0064 99.8075 22.2285 98.3489 27.4662L97.9628 27.3588C99.3701 22.3062 96.1678 16.2964 90.8244 13.9623C86.1635 11.9262 80.1689 12.4437 74.7878 15.3496C70.0804 17.8912 66.9718 21.6846 66.2598 25.7569L66.2229 25.9691L66.0139 25.9171C62.3245 24.9919 59.1374 25.0824 56.5414 26.1862C53.4127 27.5174 51.2837 30.6124 51.4792 33.5456L51.0794 33.5721Z" fill="#E5BBC1"/>
<path d="M11.5291 48.5079L11.1831 48.3053C12.0642 46.8034 13.663 45.7622 15.5701 45.4482C17.2898 45.1662 18.9679 45.5243 20.2447 46.4382C19.7504 42.6015 19.527 37.7899 21.6112 33.6184C23.5656 29.708 28.3018 26.4672 32.8482 27.8129C36.7458 28.9679 38.9845 32.8487 40.7307 36.6061L40.7371 36.3658L40.9373 36.357L41.1376 36.3618L41.0855 38.353L40.7267 37.5585C38.9621 33.6521 36.7442 29.3844 32.7344 28.1965C28.3939 26.9093 23.8499 30.034 21.97 33.797C19.845 38.0495 20.179 43.0188 20.7076 46.8731L20.7797 47.4002L20.3776 47.0517C19.1529 45.9896 17.4244 45.5483 15.6358 45.8439C13.8464 46.1378 12.3493 47.1094 11.5291 48.5079Z" fill="#E5BBC1"/>
<path d="M87.9672 79.8769C86.4789 79.8769 84.9899 79.6399 83.8765 78.6739C81.7139 76.798 82.1808 73.2944 83.6034 70.6552C84.7168 68.5886 86.068 67.1485 87.6219 66.3731C89.5715 65.4007 91.9184 65.6034 93.329 66.8633L93.063 67.1621C91.7686 66.0079 89.606 65.8317 87.8006 66.7312C86.3227 67.4689 85.0292 68.853 83.9558 70.845C82.6086 73.3441 82.1432 76.6402 84.1393 78.3711C85.5506 79.5958 87.6876 79.5469 89.5772 79.4052C94.2021 79.0575 98.8774 78.5513 103.473 77.8985L103.529 78.295C98.9255 78.9486 94.2413 79.4572 89.6068 79.8049C89.0733 79.8441 88.5198 79.8761 87.9672 79.8769Z" fill="#E5BBC1"/>
<path d="M45.9915 62.9617L45.925 62.5308C45.3275 58.6797 43.9714 55.8866 41.8952 54.2278C39.6765 52.4552 36.4261 51.8432 32.9746 52.5465C29.8564 53.1825 27.0073 54.714 24.2503 56.1942L24.0613 55.8418C26.8431 54.3471 29.7187 52.802 32.8946 52.154C36.4606 51.4259 39.8335 52.0683 42.1451 53.9146C44.2245 55.575 45.6038 58.3088 46.2502 62.0422L46.4016 61.866L46.7068 62.1255L45.9915 62.9617Z" fill="#BF7BA0"/>
<path d="M6.74641 57.8707C4.76878 57.8707 2.77753 56.996 1.51277 55.4733C-0.134057 53.4909 -0.475273 50.4992 0.681351 48.1964C1.12269 47.3185 1.73544 46.5984 2.45473 46.1154C3.82521 45.1967 5.79004 45.0188 7.84857 45.6284C11.3217 46.6585 14.23 49.5676 15.2577 53.0415L14.874 53.1553C13.8832 49.8087 11.0814 47.0053 7.73403 46.0129C5.79004 45.4378 3.94698 45.5955 2.67741 46.4478C2.0158 46.8931 1.44868 47.5596 1.03858 48.3766C-0.0491613 50.5408 0.272045 53.3539 1.82035 55.2178C3.36866 57.0809 6.076 57.9139 8.40206 57.2403L8.51338 57.6248C7.93988 57.7914 7.34395 57.8707 6.74641 57.8707Z" fill="#BF7BA0"/>
</svg>
