<svg width="212" height="102" viewBox="0 0 212 102" fill="none" xmlns="http://www.w3.org/2000/svg">
<path d="M187.594 70.3659C187.65 72.7859 187.073 75.2759 185.596 77.1889C185.005 77.9489 184.316 78.5819 183.542 79.1159C180.447 81.2399 176.1 81.5639 172.189 81.6899C163.115 81.9709 154.028 82.2669 144.954 82.5619C141.634 82.6609 136.949 84.9249 138.624 87.8089C140.326 90.7349 147.163 89.6939 146.305 92.9719C126.61 96.8689 106.043 96.3059 86.602 91.3399C82.705 90.3549 78.316 88.6669 77.12 84.8409C76.613 83.2229 76.782 81.4509 76.163 79.8749C76.444 79.5229 76.684 79.1579 76.894 78.7639C80.931 71.1529 74.207 59.5049 67.511 56.0449C65.077 54.7929 62.095 54.0899 59.619 55.2849C56.805 56.6349 55.595 59.9129 54.104 62.6559C53.682 63.4159 53.161 64.2039 52.332 64.4569C51.389 64.7379 50.405 64.2179 49.448 63.9929C46.381 63.2329 43.23 65.5829 41.978 68.4949C40.937 70.9289 40.895 73.6579 41.021 76.3309C27.08 77.7379 13.223 79.2849 0 75.2059C7.034 70.9289 15.573 69.1849 23.732 70.3669C26.644 70.7889 30.878 70.6199 31.019 67.6799C31.132 65.3169 28.248 64.2049 26.208 63.0089C21.383 60.1809 19.835 52.9789 23.071 48.4209C25.814 44.5659 31.455 43.3139 35.704 45.1999H35.718C36.506 45.5519 37.237 46.0019 37.898 46.5649C34.479 36.1129 45.283 24.7739 56.256 25.3929C67.243 25.9979 76.162 35.7469 78.666 46.4529C79.806 39.7279 88.823 37.1259 95.181 39.6159C111.922 46.1719 122.824 72.7029 144.418 66.2739C153.984 63.4319 160.765 53.6269 171.484 54.5419C179.533 55.2289 187.411 61.9539 187.594 70.3659Z" fill="#E5BBC1"/>
<path d="M201.802 74.0099C201.366 75.3319 200.789 76.6689 199.734 77.5829C198.383 78.7649 196.484 79.0459 194.712 79.1869C190.984 79.4829 187.27 79.3839 183.542 79.1169C184.316 78.5819 185.005 77.9489 185.596 77.1899C187.073 75.2769 187.65 72.7869 187.594 70.3669C187.411 61.9539 179.533 55.2299 171.486 54.5409C160.766 53.6269 153.986 63.4319 144.42 66.2729C122.826 72.7019 111.924 46.1699 95.1831 39.6149C88.8251 37.1249 79.8071 39.7279 78.6681 46.4519C76.1641 35.7459 67.2451 25.9969 56.2581 25.3919C45.2851 24.7729 34.4811 36.1119 37.9001 46.5639C37.2391 46.0009 36.5071 45.5509 35.7201 45.1989H35.7061C31.7251 34.9299 40.7001 19.2439 48.9301 14.4469C60.3391 7.3989 76.6441 9.7619 85.5901 19.7649C87.5311 12.1399 95.6201 6.9489 103.47 7.2729C111.334 7.5959 118.523 12.7589 122.419 19.5819C126.316 26.4189 127.202 34.6629 126.105 42.4559C132.632 39.7129 141.115 44.8899 141.664 51.9519C151.075 40.1069 167.675 33.6499 182.095 38.2499C196.513 42.8639 206.543 59.6459 201.802 74.0099Z" fill="white"/>
<path d="M76.895 78.7649C76.684 79.1589 76.445 79.5249 76.164 79.8759C76.164 79.8619 76.164 79.8339 76.15 79.8199C74.799 76.5139 70.635 75.5429 67.076 75.2759C58.453 74.6289 49.731 75.4589 41.023 76.3309C40.896 73.6579 40.939 70.9289 41.98 68.4949C43.232 65.5829 46.383 63.2339 49.45 63.9929C50.407 64.2179 51.391 64.7389 52.334 64.4569C53.164 64.2039 53.684 63.4159 54.106 62.6559C55.597 59.9129 56.807 56.6349 59.621 55.2849C62.097 54.0889 65.079 54.7929 67.513 56.0449C74.208 59.5059 80.932 71.1539 76.895 78.7649Z" fill="#BF7BA0" fill-opacity="0.7"/>
<path d="M179.47 81.817C178.879 83.628 179.013 85.779 177.735 87.192C175.873 89.25 172.567 88.328 169.821 87.925C165.151 87.24 160.21 88.695 156.657 91.801C155.663 92.67 154.724 93.7739 154.656 95.0919C154.57 96.7599 155.965 98.214 157.544 98.758C159.122 99.303 160.845 99.146 162.507 98.983C169.835 98.264 196.868 99.807 198.768 90.992C200.621 82.397 183.364 69.892 179.47 81.817Z" fill="white"/>
<path d="M40.374 76.6629C37.539 72.4469 36.933 67.2809 38.829 63.5039C39.955 61.2639 42.153 59.5269 44.71 58.8589C46.697 58.3399 48.633 58.5479 50.217 59.4449C49.895 54.5109 53.717 49.4729 58.798 48.2749C63.76 47.1019 69.421 49.4009 72.565 53.8629L72.156 54.1499C69.128 49.8509 63.68 47.6359 58.914 48.7609C53.894 49.9449 50.161 55.0429 50.762 59.8919L50.83 60.4379L50.374 60.1289C48.838 59.0909 46.871 58.8109 44.838 59.3419C42.454 59.9649 40.323 61.6459 39.278 63.7279C37.461 67.3469 38.055 72.3149 40.791 76.3829L40.374 76.6629Z" fill="#BF7BA0" fill-opacity="0.7"/>
<path d="M79.719 80.3319C79.147 80.3319 78.571 80.2569 78.007 80.1009C75.784 79.4829 73.83 77.6379 72.908 75.2849L73.374 75.1029C74.24 77.3119 76.066 79.0429 78.141 79.6189C80.398 80.2489 82.886 79.4649 84.187 77.7139C84.929 76.7159 85.341 75.3929 85.41 73.7829C85.613 69.0509 82.655 64.1799 78.05 61.6629C73.949 59.4209 68.758 58.9199 63.433 60.2489L63.312 59.7649C68.76 58.4029 74.079 58.9209 78.291 61.2239C83.059 63.8309 86.121 68.8869 85.911 73.8049C85.837 75.5169 85.392 76.9319 84.59 78.0129C83.492 79.4849 81.635 80.3319 79.719 80.3319Z" fill="#BF7BA0" fill-opacity="0.7"/>
<path d="M148.568 66.037C140.55 66.037 133.272 62.808 129.005 60.433C122.84 57 117.284 52.454 111.912 48.057C109.749 46.287 107.512 44.456 105.267 42.725C101.841 40.082 97.797 37.241 93.142 36.985C90.568 36.848 87.806 37.846 85.938 39.6C84.499 40.952 83.731 42.592 83.718 44.343L83.22 44.372C81.736 32.619 71.92 22.791 60.874 21.998C55.173 21.588 49.122 23.934 44.685 28.27C40.608 32.254 38.412 37.447 38.659 42.518L38.16 42.543C37.906 37.329 40.157 31.997 44.336 27.913C48.875 23.478 55.067 21.086 60.911 21.5C71.664 22.272 81.273 31.42 83.452 42.658C83.798 41.407 84.523 40.245 85.596 39.237C87.56 37.391 90.464 36.338 93.169 36.487C97.739 36.738 101.831 39.444 105.572 42.331C107.822 44.066 110.062 45.899 112.228 47.672C117.583 52.055 123.121 56.587 129.248 59.997C135.018 63.209 146.357 68.005 157.474 64.04C158.499 63.674 159.906 63.046 160.303 61.823L160.779 61.977C160.314 63.41 158.766 64.109 157.642 64.51C154.593 65.597 151.53 66.037 148.568 66.037Z" fill="#E5BBC1"/>
<path d="M26.0031 67.6309C21.5061 67.6309 17.5181 65.9949 15.1931 63.1579C12.1671 59.4639 12.1751 53.6829 15.2141 49.9989C18.2511 46.3149 23.9221 45.2039 28.1271 47.4679L27.8901 47.9089C23.8901 45.7519 18.4921 46.8109 15.6001 50.3179C12.7091 53.8249 12.7001 59.3259 15.5801 62.8419C17.9801 65.7709 22.2491 67.3629 27.0071 67.1029C29.0201 66.9929 31.3001 66.2219 31.6631 64.3889L32.1531 64.4869C31.7351 66.5999 29.2351 67.4819 27.0341 67.6029C26.6881 67.6209 26.3441 67.6309 26.0031 67.6309Z" fill="#E5BBC1"/>
<path d="M110.307 101.309C103.272 101.309 96.2489 100.943 89.3369 100.582C86.2909 100.422 82.5009 100.223 79.7309 98.0599C79.0359 97.5179 78.2139 96.6389 78.2409 95.5369C78.2719 94.3269 79.2649 93.4689 80.1939 92.7599L86.6859 87.7909L86.9899 88.1879L80.4979 93.1569C79.6609 93.7969 78.7669 94.5609 78.7419 95.5499C78.7199 96.4449 79.4349 97.1949 80.0389 97.6669C82.4859 99.5769 85.7099 99.8919 89.3639 100.083C104.031 100.85 119.197 101.64 133.892 98.8929L133.984 99.3849C126.169 100.844 118.23 101.309 110.307 101.309Z" fill="#E5BBC1"/>
<path d="M185.506 76.7559L185.279 76.3109C188.883 74.4819 191.219 70.2259 191.094 65.7209C190.984 61.7679 189.131 57.7099 185.878 54.2959C184.118 52.4489 181.315 50.1999 177.955 49.9769C175.985 49.8449 173.851 50.3889 171.25 51.6889C165.963 54.3299 161.392 58.5839 158.378 63.6689L157.948 63.4129C161.01 58.2469 165.655 53.9249 171.026 51.2409C173.71 49.8999 175.924 49.3379 177.988 49.4769C181.509 49.7109 184.419 52.0389 186.24 53.9499C189.579 57.4549 191.48 61.6299 191.594 65.7069C191.725 70.4019 189.278 74.8419 185.506 76.7559Z" fill="#E5BBC1"/>
<path d="M37.363 28.4779L36.864 28.4509C37.056 24.8959 38.063 21.2179 39.776 17.8149C44.62 8.18792 55.167 1.79092 65.422 2.23392C76.141 2.70892 86.071 11.0059 88.03 21.1239L87.539 21.2189C85.622 11.3179 75.897 3.19792 65.399 2.73392C55.347 2.29992 44.982 8.58292 40.222 18.0399C38.54 21.3809 37.552 24.9909 37.363 28.4779Z" fill="white"/>
<path d="M121.76 44.7729L121.341 44.5019C124.265 39.6519 127.773 33.1889 128.961 26.2149C130.185 19.0339 128.711 12.1809 124.917 7.41391C120.875 2.33591 113.86 -0.348081 107.462 0.738919C101.063 1.82392 95.325 6.67091 93.185 12.7979C93.039 13.2139 92.626 14.6119 93.423 15.1229L93.153 15.5439C92.078 14.8539 92.487 13.2789 92.713 12.6329C94.912 6.33992 100.805 1.36191 107.378 0.245907C113.951 -0.871093 121.157 1.88692 125.309 7.10292C129.191 11.9809 130.703 18.9779 129.455 26.2989C128.534 31.7049 126.243 36.7939 123.897 41.0759L124.19 41.2799L121.76 44.7729Z" fill="white"/>
<path d="M118.42 30.1419L117.993 29.8819C119.162 27.9589 120.039 25.8779 120.6 23.6969C121.768 19.1519 121.35 14.7439 119.425 11.2839C117.269 7.41291 113.003 4.96391 109.024 5.33591C104.734 5.73491 101.096 9.73991 101.391 13.7369L100.892 13.7739C100.572 9.4439 104.35 5.26891 108.978 4.83791C113.207 4.44491 117.578 6.93792 119.861 11.0409C121.85 14.6129 122.284 19.1519 121.084 23.8209C120.512 26.0509 119.615 28.1769 118.42 30.1419Z" fill="white"/>
<path d="M124.402 44.7289C123.942 44.2459 123.739 43.6549 123.799 42.9729C123.922 41.5789 125.164 40.0799 126.342 39.2139C129.881 36.6089 133.131 35.3059 136.278 35.2309C140.089 35.1299 143.606 37.1469 144.955 40.1619C148.735 35.2819 155.082 32.3909 161.237 32.7469C167.546 33.1199 173.636 36.9139 176.753 42.4139L176.318 42.6599C173.283 37.3049 167.352 33.6089 161.208 33.2459C155.066 32.8849 148.738 35.8519 145.092 40.8119L144.817 41.1859L144.656 40.7509C143.396 37.3539 139.502 35.6589 136.29 35.7319C133.25 35.8049 130.093 37.0759 126.64 39.6179C125.553 40.4179 124.408 41.7799 124.299 43.0179C124.252 43.5509 124.409 44.0109 124.766 44.3859L124.402 44.7289Z" fill="white"/>
<path d="M198.036 77.4239L198.024 76.9239C202.467 76.8229 206.725 74.2429 208.87 70.3509C210.207 67.9259 210.786 65.0019 210.543 61.8949C210.073 55.8889 206.372 49.9119 200.883 46.2949C195.886 43.0019 189.419 41.4819 182.665 42.0079L182.626 41.5099C189.483 40.9679 196.067 42.5219 201.158 45.8769C206.858 49.6329 210.553 55.6069 211.041 61.8559C211.291 65.0609 210.691 68.0829 209.307 70.5929C207.078 74.6379 202.653 77.3189 198.036 77.4239Z" fill="white"/>
<path d="M155.132 95.946C153.254 92.97 154.392 88.436 157.567 86.241C160.255 84.385 164.087 84.093 167.652 85.455C167.583 82.899 168.674 80.401 170.752 78.383C173.297 75.909 176.949 74.588 180.277 74.926C186.008 75.514 191.393 80.047 193.996 86.474L193.532 86.662C190.998 80.404 185.775 75.994 180.226 75.425C177.039 75.099 173.543 76.368 171.1 78.742C169.023 80.761 167.982 83.272 168.17 85.814L168.2 86.219L167.825 86.063C164.315 84.603 160.493 84.829 157.851 86.654C154.886 88.703 153.813 92.921 155.555 95.679L155.132 95.946Z" fill="white"/>
</svg>
