<svg width="237" height="67" viewBox="0 0 237 67" fill="none" xmlns="http://www.w3.org/2000/svg">
<path d="M121.644 32.2306C116.294 33.1606 109.564 31.6706 103.904 31.4606C104.284 29.9006 104.044 28.1905 103.164 26.8405C101.864 24.8405 99.2536 23.8006 96.9336 24.3506C100.534 18.9606 100.264 11.2706 96.2736 6.15057C94.1736 3.45057 91.6436 1.76056 88.9536 0.950561C93.1936 0.480561 97.6436 1.39056 101.404 3.45056C107.344 6.72056 111.624 12.5806 113.754 19.0206C113.564 18.4306 119.334 19.4406 119.824 19.6806C122.084 20.7706 123.354 22.4806 124.354 24.7006C126.534 29.5206 126.083 31.4706 121.644 32.2306Z" fill="white"/>
<path d="M115.713 26.9806C116.723 26.7606 117.773 26.6606 118.813 26.6206C117.784 26.7406 116.743 26.8606 115.713 26.9806Z" fill="white"/>
<path d="M229.243 21.1305C229.063 22.5605 227.533 23.3706 226.193 23.8906C216.613 27.6106 206.353 29.5806 196.073 29.6806C197.143 34.7006 193.733 39.8005 189.293 42.3705C184.853 44.9305 179.583 45.5205 174.483 46.0605C175.093 48.8605 173.603 51.6306 171.313 53.4506C168.953 50.8606 165.013 49.6305 161.683 50.8405C165.243 48.5305 168.943 46.0806 170.983 42.3606C173.033 38.6406 172.743 33.2705 169.223 30.9105C165.833 28.6405 161.093 30.0905 157.943 32.6905C157.893 29.2705 154.853 26.2806 151.453 25.8906C148.053 25.5006 144.613 27.4306 142.783 30.3306C140.963 33.2206 140.623 36.9005 141.433 40.2205C138.143 34.8005 133.363 30.3005 127.763 27.3405C131.003 27.9905 134.163 29.0805 137.113 30.5605C139.603 25.0505 143.183 19.8605 148.193 16.4705C148.673 16.1405 149.153 15.8306 149.643 15.5206C153.053 13.4006 156.693 11.9206 160.773 12.4606C164.373 12.9406 167.753 14.8006 170.133 17.5406C172.183 19.9106 172.973 22.6306 173.723 25.6106C173.863 26.1706 174.243 27.1206 174.683 27.4606C176.123 25.4206 176.763 22.8205 179.423 21.9405C181.873 21.1305 184.553 21.5805 187.073 21.7505C189.253 21.9005 191.383 21.7406 193.563 21.5706C203.663 20.7906 213.643 18.9705 223.743 18.1205C226.143 17.9205 229.543 18.7405 229.243 21.1305Z" fill="white"/>
<path d="M171.314 53.4506C170.394 54.1906 169.344 54.7706 168.254 55.1406C164.444 56.4306 160.294 55.8506 156.304 55.3506C121.444 51.0506 86.1738 55.1106 51.0538 56.0106C43.8838 56.1906 36.6438 56.2406 29.5938 54.8606C36.3837 48.7506 45.5337 45.8506 54.6037 44.7706C63.6737 43.7006 72.8438 44.2706 81.9738 44.2106C83.0938 44.2106 84.2537 44.1806 85.2737 43.7306C86.4537 43.2206 87.3238 42.2006 88.2338 41.3006C93.6438 35.9506 102.064 33.9006 109.324 36.1506C108.004 33.7006 109.244 30.4606 111.464 28.7806C112.714 27.8406 114.174 27.2906 115.714 26.9806C116.744 26.8606 117.784 26.7406 118.814 26.6206H118.854C119.034 26.6006 119.214 26.6006 119.394 26.5906C122.194 26.5206 125.014 26.7706 127.764 27.3406C133.364 30.3006 138.144 34.8006 141.434 40.2206C140.624 36.9006 140.964 33.2206 142.784 30.3306C144.614 27.4306 148.054 25.5006 151.454 25.8906C154.854 26.2806 157.894 29.2706 157.944 32.6906C161.094 30.0906 165.834 28.6406 169.224 30.9106C172.744 33.2706 173.034 38.6406 170.984 42.3606C168.944 46.0806 165.244 48.5306 161.684 50.8406C165.013 49.6306 168.954 50.8606 171.314 53.4506Z" fill="#E5BBC1"/>
<path d="M136.178 39.5456C134.15 40.0936 132.111 40.6676 130.248 41.6376C128.385 42.6076 126.689 44.0126 125.716 45.8736C125.998 43.3666 127.248 40.9686 129.185 39.3516C131.122 37.7346 133.732 36.9316 136.236 37.2436C138.128 37.4796 140.284 38.4456 141.272 40.1396C139.405 39.3836 138.243 38.9876 136.178 39.5456Z" fill="white"/>
<path d="M48.9945 50.9716C47.7015 47.4656 44.6175 44.6756 41.0005 43.7376C37.3835 42.7996 33.3325 43.7416 30.4995 46.1776C29.0965 47.3836 27.9395 49.0916 28.0525 50.9376C26.4925 50.0646 24.4605 50.1116 22.9415 51.0546C21.4225 51.9976 20.4805 53.7986 20.5705 55.5836C19.0945 54.6646 17.3805 53.9356 15.6595 54.1796C13.9385 54.4236 12.2445 55.9556 12.4265 57.6846C22.4465 57.6846 32.4665 57.6846 42.4865 57.6846C48.5895 57.6846 54.6915 57.6846 60.7945 57.6846C62.0595 57.6846 63.9235 58.0376 65.1495 57.6846C66.9125 57.1766 66.1456 56.4946 64.9426 55.3296C63.1696 53.6116 60.9395 51.9346 58.6125 51.0996C57.7935 50.8046 48.6995 50.1716 48.9945 50.9716Z" fill="#BF7BA0"/>
<path d="M103.903 31.4606C103.513 31.4506 103.133 31.4406 102.753 31.4406C96.6726 31.4206 90.5926 31.6605 84.5426 32.3405C71.2226 33.8305 57.9626 37.3806 44.6126 36.1606C42.7826 35.9906 40.4126 35.0606 40.6926 33.2406C40.8926 32.0006 42.2826 31.3705 43.4926 31.0305C46.6926 30.1405 50.0226 29.7206 53.3426 29.7906C55.6726 21.4006 66.4726 16.6106 74.2626 20.5206C72.5326 13.9606 76.0726 6.61057 81.9426 3.21057C84.1026 1.96057 86.4926 1.23056 88.9526 0.950562C91.6426 1.76056 94.1726 3.45057 96.2726 6.15057C100.263 11.2706 100.533 18.9606 96.9326 24.3506C99.2526 23.8006 101.863 24.8405 103.163 26.8405C104.043 28.1905 104.284 29.9006 103.903 31.4606Z" fill="#E5BBC1"/>
<path d="M139.767 29.6106L139.342 29.0745C136.846 25.9225 131.695 25.3155 128.534 27.7945L128.225 27.4015C131.425 24.8895 136.536 25.3526 139.317 28.2836C139.993 17.4276 149.488 7.72257 160.362 6.93057C163.804 6.67657 166.828 7.31857 169.103 8.77957C174.19 12.0446 175.209 18.9966 173.48 24.9076C177.761 18.0716 182.165 15.0976 186.9 15.8396C188.86 16.1456 190.615 17.1255 192.313 18.0735C193.039 18.4785 193.79 18.8986 194.543 19.2576C202.163 22.8806 211.578 20.8956 218.452 19.4456L218.556 19.9336C211.612 21.3986 202.102 23.4046 194.329 19.7086C193.561 19.3436 192.803 18.9206 192.069 18.5106C190.41 17.5836 188.695 16.6256 186.823 16.3336C181.762 15.5456 177.035 19.2856 172.383 27.7746L171.939 27.5456C174.892 21.4026 174.537 12.8605 168.833 9.19854C166.075 7.42854 162.725 7.25755 160.398 7.42855C149.559 8.21855 140.12 18.0625 139.787 28.9265L139.767 29.6106Z" fill="white"/>
<path d="M180.586 47.4235C177.945 47.4235 175.308 46.7775 173 45.4605L173.248 45.0265C178.401 47.9645 185.253 47.4515 189.911 43.7725C194.567 40.0955 196.656 33.5485 194.991 27.8535L194.573 26.4235L195.435 27.6385C197.263 30.2145 202.569 31.8235 205.691 32.2765C209.192 32.7835 212.768 32.0605 215.152 31.4715C217.332 30.9345 219.821 30.1735 221.755 28.6075C223.774 26.9715 224.854 24.5405 224.505 22.4125L224.998 22.3325C225.375 24.6335 224.226 27.2495 222.069 28.9965C220.059 30.6245 217.505 31.4075 215.272 31.9585C212.847 32.5565 209.209 33.2915 205.619 32.7715C202.744 32.3545 198.051 30.9655 195.729 28.7335C196.936 34.3655 194.758 40.5835 190.221 44.1665C187.493 46.3185 184.037 47.4235 180.586 47.4235Z" fill="white"/>
<path d="M122.892 23.0956C122.803 20.6946 121.454 18.3056 119.283 16.7046C117.112 15.1036 114.43 14.5196 112.111 15.1456L111.669 15.2646L111.808 14.8286C112.545 12.5226 111.992 9.76959 110.328 7.46459C109.002 5.62759 106.994 4.03558 104.189 2.59658C101.492 1.21158 96.3507 -0.756401 92.2287 1.5946L91.9807 1.16058C96.3087 -1.31242 101.631 0.720599 104.418 2.1506C107.294 3.6276 109.36 5.26959 110.733 7.17159C112.391 9.46859 113 12.1976 112.403 14.5636C114.767 14.0746 117.417 14.7096 119.58 16.3026C121.872 17.9916 123.297 20.5246 123.393 23.0756L122.892 23.0956Z" fill="white"/>
<path d="M120.877 44.8545L120.383 44.7805C120.87 41.5175 123.129 38.5365 126.138 37.1855C129.15 35.8345 132.877 36.1266 135.638 37.9336C135.831 38.0596 136.073 38.1846 136.224 38.1526C136.21 38.1426 136.196 38.1346 136.186 38.1316C136.201 38.1356 136.255 38.1326 136.302 38.0936C136.35 38.0526 136.363 37.9985 136.361 37.9795L135.866 38.0536C135.833 37.8246 135.961 37.6956 136.081 37.6526C136.304 37.5776 136.58 37.7415 136.7 37.9445C136.813 38.1355 136.782 38.3506 136.622 38.4926C136.182 38.8856 135.566 38.4836 135.365 38.3516C132.742 36.6366 129.202 36.3575 126.344 37.6425C123.485 38.9255 121.339 41.7565 120.877 44.8545Z" fill="white"/>
<path d="M204.331 23.5366L203.983 23.1776C208.9 18.4316 214.992 15.0016 221.599 13.2596C225.085 12.3406 227.845 12.1846 230.279 12.7636C233.407 13.5096 235.945 15.6896 236.745 18.3156L236.266 18.4616C235.517 16.0016 233.121 13.9556 230.163 13.2496C227.809 12.6896 225.131 12.8456 221.726 13.7436C215.202 15.4636 209.187 18.8506 204.331 23.5366Z" fill="white"/>
<path d="M32.5767 32.7086L32.3447 32.2656C38.7767 28.8906 46.4287 28.1016 53.4117 30.0806C52.3067 26.0286 53.9827 21.2876 57.4327 18.8826C60.8537 16.4946 65.8307 16.5376 69.2487 18.9206C68.8137 13.4306 70.2297 8.48564 73.1687 5.28764C76.4617 1.70164 82.7917 0.114638 86.9667 3.46364L86.6537 3.85463C82.6997 0.678629 76.6787 2.20763 73.5377 5.62563C70.5957 8.82763 69.2327 13.8586 69.7977 19.4296L69.8577 20.0186L69.3937 19.6516C66.1427 17.0726 61.1227 16.9186 57.7197 19.2936C54.3157 21.6666 52.7257 26.4306 54.0217 30.3726L54.1717 30.8286L53.7127 30.6896C46.7357 28.5856 39.0307 29.3206 32.5767 32.7086Z" fill="#E5BBC1"/>
<path d="M149.618 66.6686L149.508 66.3566C148.257 62.8196 144.914 59.8196 140.565 58.3326C136.603 56.9796 132.248 56.8806 128.132 56.8966C123.961 56.9116 119.701 57.0276 115.583 57.1396C102.143 57.5076 88.2427 57.8866 74.9697 54.8256L75.0817 54.3396C88.2917 57.3856 102.16 57.0066 115.569 56.6396C119.691 56.5276 123.953 56.4106 128.13 56.3966C132.291 56.3706 136.691 56.4806 140.727 57.8606C145.095 59.3536 148.486 62.3386 149.867 65.8856C156.127 61.6486 164.854 61.5276 171.215 65.6226L170.944 66.0426C164.658 61.9966 156 62.1756 149.888 66.4786L149.618 66.6686Z" fill="#E5BBC1"/>
<path d="M79.3827 46.1236L79.0417 45.7586C82.5427 42.4956 86.5117 38.7976 91.3707 37.0386C95.5797 35.5156 101.599 35.6296 105.201 39.3416L105.325 37.8106L105.823 37.8516L105.605 40.5526L105.214 40.0976C101.825 36.1466 95.7497 35.9856 91.5397 37.5096C86.7777 39.2326 82.8487 42.8946 79.3827 46.1236Z" fill="#E5BBC1"/>
<path d="M166.819 43.9906C166.73 43.9906 166.641 43.9896 166.552 43.9856L166.572 43.4856C168.43 43.5796 170.322 42.7616 171.783 41.2866C173.354 39.6996 174.229 37.5276 174.124 35.4766C173.918 31.4786 170.328 27.7896 166.121 27.2556C162.121 26.7406 157.836 28.8576 155.468 32.5066C155.164 32.9766 154.881 33.4806 154.633 33.9236L154.197 33.6796C154.45 33.2296 154.736 32.7186 155.049 32.2356C157.52 28.4276 161.994 26.2286 166.185 26.7596C170.695 27.3326 174.402 31.1506 174.624 35.4506C174.737 37.6386 173.808 39.9526 172.139 41.6366C170.648 43.1436 168.723 43.9906 166.819 43.9906Z" fill="#E5BBC1"/>
<path d="M6.76064 64.7916C6.05864 64.7916 5.35564 64.7286 4.66164 64.5736C2.57264 64.1046 0.22764 62.4536 0.0156399 59.9336C-0.13036 58.2056 0.744641 56.4336 2.69064 54.5176C3.60164 53.6216 4.71864 52.6926 6.10264 52.5896C6.42664 52.5646 6.77064 52.5826 7.10364 52.5996C7.89864 52.6426 8.64764 52.6796 9.06064 52.1636C9.30064 51.8626 9.35064 51.4436 9.40264 51.0016C9.41464 50.8976 9.42664 50.7936 9.44164 50.6916C9.86764 47.7336 12.7006 45.7126 15.2786 45.2476C17.6536 44.8166 20.3056 45.2956 23.3856 46.7066C23.7436 46.8716 24.1116 47.0406 24.4466 46.9786C24.8136 46.9146 25.1116 46.5866 25.3986 46.2716L25.4496 46.2146C27.8826 43.5506 31.6226 42.1066 35.2196 42.4416C38.8116 42.7796 42.2216 44.8966 44.1166 47.9676L43.6906 48.2296C41.8766 45.2896 38.6116 43.2626 35.1726 42.9396C31.7336 42.6136 28.1476 44.0026 25.8186 46.5526L25.7686 46.6076C25.4406 46.9676 25.0686 47.3766 24.5346 47.4706C24.0416 47.5616 23.5866 47.3486 23.1816 47.1616C20.1936 45.7916 17.6366 45.3236 15.3686 45.7386C12.9666 46.1736 10.3306 48.0386 9.93764 50.7616C9.92364 50.8596 9.91164 50.9586 9.89964 51.0586C9.84064 51.5516 9.78064 52.0616 9.45164 52.4746C8.87964 53.1916 7.96664 53.1436 7.07864 53.0986C6.76264 53.0816 6.43464 53.0676 6.14064 53.0866C4.91764 53.1776 3.88764 54.0406 3.04164 54.8726C1.20864 56.6776 0.381641 58.3186 0.513641 59.8906C0.695641 62.0586 2.79364 63.6406 4.77064 64.0836C6.93964 64.5696 9.26264 64.0946 11.3136 63.6756L29.0286 60.0536L29.1296 60.5436L11.4146 64.1656C9.95564 64.4656 8.36064 64.7916 6.76064 64.7916Z" fill="#BF7BA0"/>
<path d="M69.7675 55.9366L69.2795 55.8276C69.8695 53.1936 68.0815 50.5826 66.0115 49.3646C64.0815 48.2286 61.5715 47.7886 58.3405 48.0026C54.9865 48.2306 51.3005 49.8436 51.1335 52.8416L50.6345 52.8146C50.8195 49.4956 54.6205 47.7556 58.3055 47.5046C61.6405 47.2756 64.2445 47.7446 66.2645 48.9336C68.4915 50.2426 70.4095 53.0686 69.7675 55.9366Z" fill="#BF7BA0"/>
</svg>
