<svg width="355" height="355" viewBox="0 0 355 355" fill="none" xmlns="http://www.w3.org/2000/svg">
<rect x="30" y="30" width="295" height="147" fill="white"/>
<rect width="355" height="355" fill="white"/>
<circle cx="177.5" cy="177.5" r="147.5" fill="white"/>
<path d="M87.6326 259.278C87.9818 260.5 89.3351 261.024 90.6884 261.198C91.4305 261.329 92.26 261.329 93.1767 261.286C92.4782 259.583 92.9148 255.698 93.7442 251.289C100.031 252.337 106.491 249.455 108.369 240.943C110.464 231.731 99.2447 226.144 93.1767 228.414C90.5138 229.33 89.3787 230.989 88.8985 232.43C88.6366 233.259 88.5493 234.089 88.6366 235.006C90.2518 231.644 94.6173 230.422 98.3716 231.731C108.325 235.049 101.34 248.189 94.0935 249.412C95.2721 243.475 96.8437 237.363 97.1929 235.006C97.3676 233.958 96.0579 233.259 94.661 232.997C93.2204 232.736 91.6924 232.823 91.5178 233.347C92.0417 234.132 90.8194 239.196 89.597 244.697C88.331 250.197 87.196 256.309 87.6326 259.278ZM110.667 236.577C113.068 235.529 115.862 236.97 117.346 238.454L117.914 236.577C118.481 235.049 118.699 232.866 115.644 232.037C115.12 231.95 114.596 231.95 114.116 231.993C113.286 232.124 112.326 232.474 111.802 233.521L110.667 236.577ZM119.136 249.368C117.521 252.38 114.072 257.226 113.461 257.706C113.723 255.043 114.028 252.598 114.378 250.372C114.989 246.574 115.818 242.471 116.822 241.205C114.77 239.851 111.802 237.581 110.492 241.205C110.012 243.78 109.576 246.181 109.183 248.495C108.571 252.467 107.917 256.964 107.917 259.321C107.917 260.631 110.143 261.766 112.326 261.417C113.679 261.242 115.556 258.928 116.997 256.746C117.87 255.48 118.743 254.039 119.616 252.424L119.136 249.368ZM124.969 256.222C128.417 252.773 134.223 249.935 136.188 245.876C137.585 242.951 133.132 239.939 130.993 239.458C128.461 238.891 120.778 245.395 118.813 249.368L119.337 252.424C121.782 248.058 124.707 246.181 126.977 245.352C128.33 244.872 129.683 244.653 130.993 244.784C130.644 245.395 128.068 248.189 125.449 250.721C123.965 252.249 122.306 253.952 120.429 255.785C119.73 258.012 122.262 259.54 124.008 260.238C122.873 260.806 121.825 261.417 120.821 261.984C119.075 262.988 117.154 264.298 116.15 265.389C113.487 268.401 113.444 272.199 117.329 273.116C126.54 274.339 137.192 262.333 130.513 258.623C131.648 257.924 132.696 257.226 133.7 256.484C135.402 255.218 137.192 253.69 137.847 252.424L137.367 249.368C135.926 251.944 133.7 253.864 131.779 255.218C130.687 256.047 129.509 256.746 128.33 257.313L124.969 256.222ZM117.111 268.314C117.242 266.874 120.298 265.127 126.104 261.198C126.671 261.417 127.37 261.941 126.802 263.818C125.929 266.393 116.762 272.156 117.111 268.314ZM143.385 256.222C146.834 252.773 152.64 249.935 154.605 245.876C156.002 242.951 151.549 239.939 149.41 239.458C146.878 238.891 139.195 245.395 137.23 249.368L137.754 252.424C140.199 248.058 143.124 246.181 145.394 245.352C146.747 244.872 148.1 244.653 149.41 244.784C149.061 245.395 146.485 248.189 143.866 250.721C142.381 252.249 140.723 253.952 138.845 255.785C138.147 258.012 140.679 259.54 142.425 260.238C141.29 260.806 140.242 261.417 139.238 261.984C137.492 262.988 135.571 264.298 134.567 265.389C131.904 268.401 131.861 272.199 135.746 273.116C144.957 274.339 155.609 262.333 148.93 258.623C150.065 257.924 151.112 257.226 152.116 256.484C153.819 255.218 155.609 253.69 156.264 252.424L155.783 249.368C154.343 251.944 152.116 253.864 150.196 255.218C149.104 256.047 147.926 256.746 146.747 257.313L143.385 256.222ZM135.528 268.314C135.659 266.874 138.714 265.127 144.521 261.198C145.088 261.417 145.787 261.941 145.219 263.818C144.346 266.393 135.178 272.156 135.528 268.314ZM163.676 255.873C163.545 257.051 163.458 257.706 163.633 258.885C163.764 260.5 166.165 261.155 168.478 260.936C169.526 260.936 171.054 258.885 172.32 256.702C173.586 254.563 174.634 252.424 174.634 252.424L174.154 249.368L169.308 257.182C169.352 254.432 169.613 250.503 170.181 247.185C170.749 243.911 171.709 241.292 173.106 241.117C169.963 238.804 167.038 237.756 165.859 241.117C165.903 241.51 165.641 242.252 165.641 242.601L162.847 240.331C162.454 239.982 161.712 239.633 160.883 239.764L158.787 239.982C157.216 240.157 156.692 241.379 155.993 242.732C154.072 246.923 153.461 252.511 154.029 259.147C154.247 261.504 160.402 261.286 161.232 260.238L163.676 255.873ZM159.18 258.23C158.831 254.868 159.442 247.709 161.581 242.645C161.93 241.947 163.982 244.26 165.204 245.57C164.986 246.661 164.68 247.796 164.462 248.975L159.18 258.23ZM204.1 256.789C206.239 254.039 207.331 250.983 207.549 249.412C207.898 247.971 207.2 247.36 206.37 247.054C205.89 246.923 205.323 246.836 204.668 246.88C205.235 248.8 204.188 251.944 202.223 254.432C201.699 253.733 201.35 253.297 201.001 252.948C199.779 251.332 198.949 249.717 198.294 248.189L200.652 245.963C201.918 244.741 203.751 242.383 204.712 239.895C205.672 237.45 205.803 234.831 203.882 233.259C200.39 230.204 196.024 232.299 194.278 236.883C192.75 240.55 193.23 244.304 194.584 247.971C187.424 252.337 186.638 257.75 189.04 260.762C191.397 263.818 196.766 264.473 201.656 259.234C202.572 260.282 203.402 261.155 203.969 261.722C204.319 262.072 204.624 262.377 204.93 262.639C205.323 262.202 205.628 261.81 205.847 261.417C206.239 260.718 206.545 259.932 206.065 259.409L204.1 256.789ZM197.465 245.657C195.806 239.109 198.644 234.394 199.822 234.263C203.009 234.962 201.612 241.248 197.465 245.657ZM199.691 256.833C196.81 260.325 193.972 260.806 192.75 259.365C191.528 257.924 191.921 254.607 195.762 250.678C196.941 252.948 198.338 255.043 199.691 256.833ZM227.433 246.618C229.79 247.316 234.461 249.63 232.497 254.432C230.401 259.583 226.254 258.841 223.024 258.71C222.456 258.579 222.107 259.234 223.111 259.627C224.333 260.282 226.167 260.587 228.044 260.893C234.505 261.81 237.735 257.531 238.434 252.948C239.482 246.181 232.497 245.701 233.326 245.308C239.613 242.863 241.926 238.498 241.228 234.744C240.573 231.033 236.95 227.803 231.362 227.89C223.635 228.064 221.103 230.596 221.976 235.791C223.853 230.16 235.378 229.243 235.902 235.529C236.251 238.891 233.152 243.213 227.826 244.26C228.699 241.161 229.659 238.498 230.139 237.232C230.838 235.791 229.572 234.787 228.175 234.132C227.346 233.783 226.341 233.478 225.163 233.259C225.163 236.184 223.286 240.55 221.67 249.979C220.885 255.043 222.107 257.051 223.635 257.662C224.464 258.055 225.512 258.055 226.734 257.662C225.206 256.004 225.992 251.245 227.127 246.618H227.433ZM249.068 255.873C248.937 257.051 248.849 257.706 249.024 258.885C249.155 260.5 251.556 261.155 253.87 260.936C254.917 260.936 256.445 258.885 257.711 256.702C258.977 254.563 260.025 252.424 260.025 252.424L259.545 249.368L254.699 257.182C254.743 254.432 255.005 250.503 255.572 247.185C256.14 243.911 257.1 241.292 258.497 241.117C255.354 238.804 252.429 237.756 251.25 241.117C251.294 241.51 251.032 242.252 251.032 242.601L248.238 240.331C247.845 239.982 247.103 239.633 246.274 239.764L244.178 239.982C242.607 240.157 242.083 241.379 241.384 242.732C239.463 246.923 238.852 252.511 239.42 259.147C239.638 261.504 245.793 261.286 246.623 260.238L249.068 255.873ZM244.571 258.23C244.222 254.868 244.833 247.709 246.972 242.645C247.321 241.947 249.373 244.26 250.595 245.57C250.377 246.661 250.072 247.796 249.853 248.975L244.571 258.23ZM259.977 252.424C260.544 251.682 261.112 250.678 261.679 249.499C262.596 247.447 263.731 244.304 264.473 239.764C264.473 239.72 265.084 239.939 265.652 240.157C265.958 240.288 266.35 240.462 266.787 240.681C266.219 242.907 263.775 249.892 263.906 255.043C264.037 260.063 264.168 260.5 267.791 260.718C271.414 261.067 274.034 256.178 275.911 252.424L275.431 249.368C273.335 253.253 270.716 257.662 269.755 257.531C268.664 257.357 272.375 243.082 272.899 240.593C272.986 239.982 272.986 239.327 272.855 238.673C272.724 238.018 272.244 237.581 271.414 237.363C268.62 238.367 266.918 238.847 265.39 237.799C266.569 234.787 263.164 233.434 262.465 238.323C261.941 241.947 261.155 244.697 260.588 246.574C260.239 247.665 259.889 248.582 259.497 249.368L259.977 252.424Z" fill="#FF192E"/>
<path d="M166.261 56.4595H181.879V121.141L166.255 136.417L166.261 56.4595Z" fill="#FF192E"/>
<path d="M208.105 130.443L197.043 141.07L254.144 197.993H276.541L208.105 130.443Z" fill="#FF192E"/>
<path d="M109.39 102.474C108.153 103.783 106.959 105.131 105.809 106.516C105.238 107.208 104.677 107.909 104.128 108.619L103.715 109.167L103.513 109.435C103.449 109.519 103.405 109.577 103.358 109.651C102.99 110.231 102.837 110.913 102.925 111.587C102.977 111.962 103.07 112.332 103.2 112.69C103.428 113.388 103.856 114.009 104.436 114.483C105.016 114.957 105.724 115.263 106.478 115.367C106.673 115.403 106.875 115.412 107.073 115.441C107.272 115.47 107.48 115.441 107.685 115.458C107.89 115.474 108.102 115.435 108.307 115.425C108.593 115.398 108.881 115.39 109.168 115.403C109.658 115.439 110.134 115.572 110.567 115.794C111 116.016 111.38 116.322 111.683 116.693C111.733 116.758 111.78 116.819 111.824 116.883L111.938 117.051L112.123 117.335L113.619 119.593L116.608 124.125L117.358 125.261L117.731 125.828L117.919 126.109L118.01 126.251C118.05 126.316 118.094 126.38 118.131 126.445C118.436 126.975 118.604 127.568 118.622 128.174V128.496C118.622 128.593 118.622 128.69 118.642 128.79C118.642 128.983 118.683 129.18 118.716 129.374C118.849 130.149 119.118 130.898 119.513 131.586C119.71 131.926 119.935 132.249 120.185 132.554C120.413 132.812 120.684 133.03 120.989 133.199C122.243 133.938 124.109 134.022 125.232 133.296C125.508 133.115 125.743 132.882 125.922 132.611C126.1 132.34 126.219 132.036 126.271 131.719C126.403 131.003 126.336 130.266 126.076 129.583C125.665 128.521 124.906 127.616 123.914 127.003C123.768 126.915 123.614 126.841 123.453 126.78C123.381 126.754 123.307 126.731 123.231 126.712L123.12 126.687L122.986 126.664C122.356 126.579 121.758 126.344 121.248 125.98C121.114 125.882 120.988 125.774 120.871 125.658C120.766 125.555 120.668 125.448 120.575 125.335C120.37 125.087 120.201 124.814 120.074 124.522C119.927 124.175 119.866 123.799 119.896 123.425C119.932 123.045 120.065 122.68 120.283 122.361C120.482 122.063 120.741 121.807 121.046 121.607C121.35 121.408 121.693 121.269 122.055 121.199C122.366 121.145 122.683 121.127 122.999 121.145C123.285 121.158 123.569 121.191 123.85 121.245C124.378 121.355 124.893 121.519 125.386 121.732C126.31 122.15 127.175 122.678 127.962 123.303C128.157 123.448 128.342 123.606 128.527 123.761C128.73 123.926 128.923 124.103 129.105 124.29C129.292 124.481 129.466 124.684 129.626 124.896C129.784 125.099 129.942 125.345 130.053 125.522L131.519 127.809L137.375 136.961L137.426 137.035L137.453 137.109C137.702 137.724 137.91 138.353 138.075 138.993C138.161 139.327 138.228 139.665 138.277 140.006L138.324 140.486C138.34 140.619 138.357 140.751 138.381 140.877C138.425 141.126 138.49 141.37 138.576 141.609C138.662 141.829 138.774 142.038 138.912 142.232C139.053 142.439 139.213 142.634 139.389 142.815C139.466 142.892 139.546 142.964 139.631 143.032L139.682 143.064L139.759 143.109L139.924 143.203C140.346 143.449 140.82 143.604 141.311 143.655C141.803 143.707 142.3 143.655 142.768 143.503C143.201 143.348 143.583 143.085 143.874 142.741C144.021 142.563 144.149 142.371 144.254 142.167C144.35 141.945 144.427 141.715 144.483 141.48C144.542 141.233 144.581 140.981 144.597 140.728C144.597 140.703 144.597 140.648 144.597 140.648V140.609C144.597 140.574 144.597 140.525 144.58 140.477C144.561 140.362 144.535 140.247 144.503 140.135C144.434 139.89 144.342 139.652 144.231 139.422C144.115 139.184 143.982 138.955 143.834 138.735C143.55 138.306 143.192 137.926 142.775 137.612C142.576 137.461 142.361 137.331 142.133 137.225L141.908 137.115C141.801 137.065 141.699 137.008 141.602 136.945C141.412 136.823 141.235 136.683 141.074 136.528C140.919 136.377 140.779 136.213 140.653 136.038C140.59 135.951 140.532 135.861 140.499 135.806L140.371 135.609L139.87 134.822L138.862 133.251L138.734 133.057L138.67 132.957L138.636 132.903L138.566 132.777C138.389 132.427 138.349 132.029 138.454 131.653C138.559 131.278 138.802 130.952 139.137 130.735C139.175 130.71 139.214 130.688 139.255 130.667L139.332 130.625L139.49 130.551C139.6 130.503 139.712 130.461 139.826 130.425C140.278 130.284 140.758 130.244 141.228 130.306C141.458 130.34 141.684 130.397 141.901 130.477C142.008 130.516 142.119 130.567 142.22 130.612L142.432 130.719L156.095 137.474L157.803 138.315L158.657 138.738L159.084 138.951L159.192 139.003H159.222C159.242 139.003 159.262 139.003 159.279 139.022C159.355 139.033 159.432 139.018 159.498 138.981C159.564 138.945 159.615 138.887 159.642 138.819C159.642 138.819 159.642 138.783 159.642 138.767C159.644 138.757 159.644 138.748 159.642 138.738C159.646 138.719 159.646 138.699 159.642 138.68V129.957L159.622 70.9708V60.1774C159.625 60.1226 159.625 60.0677 159.622 60.0129C159.574 59.5738 159.401 59.1558 159.122 58.8043C158.844 58.4529 158.47 58.1814 158.042 58.0193C157.932 57.9795 157.82 57.9461 157.706 57.9193C157.672 57.9193 157.676 57.9193 157.659 57.9193C157.642 57.9193 157.659 57.9193 157.659 57.9193H157.608H157.504C157.238 57.9193 156.922 57.9548 156.623 57.9774C156.011 58.0387 155.389 58.1193 154.771 58.2097C153.53 58.3968 152.29 58.6161 151.056 58.8774C148.585 59.3903 146.134 60.0193 143.71 60.7322C124.189 66.544 106.853 77.6792 93.8135 92.7803L92.6133 94.1965C92.2132 94.6707 91.8064 95.1352 91.4365 95.6287L89.1604 98.5577L87.0087 101.574L86.7398 101.951L86.6053 102.138C86.5649 102.2 86.5414 102.245 86.5044 102.296C86.3783 102.501 86.2747 102.717 86.1951 102.942C86.0336 103.398 85.9763 103.882 86.027 104.361C86.071 104.843 86.2212 105.31 86.4674 105.732C86.683 106.132 87.01 106.467 87.4122 106.7C87.5125 106.755 87.6157 106.806 87.7215 106.851C87.8257 106.893 87.9232 106.925 88.0913 106.98L89.0024 107.271L90.828 107.854L98.1169 110.183L97.4815 112.012L90.1926 109.68L88.3704 109.1L87.4559 108.806C87.3248 108.764 87.1197 108.7 86.928 108.622C86.74 108.542 86.557 108.452 86.38 108.351C85.6727 107.947 85.092 107.368 84.699 106.674C84.3226 106.018 84.0935 105.294 84.0266 104.548C83.9496 103.801 84.0402 103.046 84.2922 102.335C84.4133 101.979 84.5757 101.637 84.7763 101.316C84.8234 101.238 84.8772 101.148 84.9243 101.08L85.0621 100.89L85.3344 100.506L87.5231 97.4352L89.8429 94.4513C90.2195 93.9481 90.6364 93.4836 91.0432 92.99L92.267 91.5481C105.559 76.1601 123.231 64.8162 143.128 58.9C145.602 58.1709 148.104 57.529 150.642 57.0032C151.908 56.7258 153.185 56.4957 154.471 56.3129C155.117 56.2161 155.766 56.1355 156.428 56.0677C156.764 56.0419 157.101 56.0065 157.464 56H157.598H157.773C157.917 56.0076 158.061 56.0227 158.203 56.0452C158.403 56.0933 158.598 56.1547 158.788 56.229C159.556 56.5225 160.225 57.0113 160.724 57.6429C161.223 58.2745 161.532 59.0248 161.619 59.8129C161.633 59.9102 161.639 60.0083 161.639 60.1064V60.2548V70.9741L161.66 129.957V138.715C161.66 138.741 161.66 138.825 161.66 138.886C161.66 138.948 161.66 139.019 161.639 139.086C161.619 139.22 161.585 139.352 161.538 139.48C161.35 139.995 160.974 140.426 160.48 140.696C159.985 140.965 159.406 141.053 158.849 140.944C158.711 140.915 158.576 140.875 158.445 140.825L158.257 140.741L158.153 140.69L157.726 140.48L156.912 140.054L155.204 139.209L141.524 132.457L141.309 132.351C141.271 132.332 141.232 132.315 141.191 132.299C141.114 132.27 141.032 132.251 140.949 132.241C140.782 132.218 140.612 132.232 140.452 132.283L140.337 132.325C140.317 132.333 140.298 132.343 140.28 132.354H140.253C140.237 132.354 140.253 132.354 140.253 132.354C140.321 132.311 140.37 132.246 140.391 132.17C140.412 132.095 140.404 132.015 140.368 131.945C140.368 131.936 140.368 131.927 140.368 131.919L140.395 131.964L140.458 132.061L140.583 132.257L141.591 133.828L142.096 134.612L142.22 134.809L142.321 134.964C142.378 135.042 142.441 135.115 142.509 135.183C142.575 135.246 142.647 135.302 142.724 135.351C142.759 135.376 142.796 135.398 142.835 135.415L143.037 135.509C143.385 135.674 143.714 135.873 144.019 136.103C144.611 136.55 145.121 137.088 145.528 137.696C145.729 137.991 145.908 138.299 146.063 138.619C146.222 138.947 146.352 139.288 146.45 139.638C146.505 139.821 146.548 140.008 146.577 140.196C146.596 140.303 146.608 140.411 146.614 140.519C146.618 140.581 146.618 140.643 146.614 140.706C146.614 140.783 146.614 140.806 146.614 140.857C146.592 141.217 146.538 141.574 146.453 141.925C146.369 142.291 146.247 142.647 146.09 142.99C145.914 143.334 145.698 143.658 145.448 143.957C144.927 144.57 144.246 145.039 143.474 145.315C142.728 145.566 141.934 145.657 141.147 145.581C140.361 145.505 139.601 145.265 138.922 144.877L138.673 144.732L138.549 144.657C138.498 144.626 138.448 144.591 138.401 144.554C138.237 144.428 138.082 144.293 137.937 144.148C137.674 143.881 137.438 143.592 137.231 143.283C137.011 142.964 136.833 142.621 136.7 142.261C136.574 141.919 136.48 141.567 136.417 141.209C136.384 141.032 136.36 140.861 136.34 140.686L136.296 140.248C136.258 139.98 136.205 139.714 136.138 139.451C135.995 138.903 135.815 138.364 135.6 137.838L135.678 137.986L129.811 128.845L128.335 126.554C128.207 126.348 128.116 126.212 127.999 126.054C127.884 125.905 127.76 125.762 127.629 125.625C127.493 125.485 127.348 125.354 127.195 125.232C127.03 125.093 126.859 124.951 126.694 124.825C126.043 124.304 125.326 123.864 124.559 123.516C124.203 123.36 123.83 123.241 123.447 123.161C123.269 123.125 123.089 123.104 122.909 123.096C122.759 123.087 122.61 123.092 122.461 123.112C122.266 123.15 122.093 123.26 121.981 123.419C121.938 123.474 121.912 123.54 121.907 123.609C121.901 123.682 121.915 123.756 121.947 123.822C122.002 123.944 122.075 124.058 122.162 124.161C122.209 124.219 122.27 124.287 122.324 124.341C122.369 124.385 122.418 124.426 122.468 124.464C122.711 124.636 122.996 124.747 123.295 124.787L123.507 124.822L123.739 124.87C123.888 124.909 124.035 124.956 124.179 125.009C124.453 125.111 124.717 125.238 124.966 125.387C125.428 125.661 125.856 125.986 126.24 126.354C127.013 127.088 127.605 127.977 127.975 128.957C128.356 129.966 128.451 131.054 128.251 132.109C128.143 132.669 127.927 133.204 127.612 133.686C127.286 134.179 126.857 134.601 126.351 134.925C125.381 135.519 124.243 135.809 123.094 135.754C121.984 135.724 120.901 135.423 119.947 134.88C119.447 134.592 119.001 134.227 118.625 133.799C118.296 133.404 118.001 132.983 117.745 132.541C117.237 131.659 116.891 130.7 116.719 129.706C116.675 129.457 116.645 129.209 116.625 128.957C116.625 128.832 116.605 128.706 116.601 128.58V128.238C116.595 127.944 116.513 127.656 116.363 127.399L114.9 125.174L111.908 120.635L110.409 118.377L110.224 118.093L110.146 117.98C110.127 117.951 110.106 117.923 110.082 117.896C109.954 117.737 109.792 117.606 109.608 117.511C109.423 117.416 109.219 117.359 109.01 117.345C108.835 117.319 108.19 117.4 107.699 117.403C107.437 117.403 107.178 117.403 106.915 117.38C106.653 117.358 106.384 117.329 106.119 117.283C105.014 117.118 103.979 116.663 103.128 115.967C102.277 115.272 101.644 114.364 101.297 113.345C101.119 112.858 100.993 112.356 100.921 111.845C100.769 110.729 101.022 109.596 101.637 108.638C101.711 108.522 101.802 108.4 101.876 108.316L102.084 108.042L102.504 107.493C103.065 106.768 103.64 106.051 104.229 105.342C105.404 103.922 106.625 102.542 107.894 101.2L109.39 102.474Z" fill="#FFB30B"/>
<path d="M156.145 78.0571C156.145 78.0571 133.451 79.1217 112.95 97.3571" stroke="#FBB30B" stroke-width="2.75714" stroke-miterlimit="10"/>
<path d="M130.412 101.952C132.442 101.952 134.088 100.204 134.088 98.0464C134.088 95.8892 132.442 94.1405 130.412 94.1405C128.382 94.1405 126.736 95.8892 126.736 98.0464C126.736 100.204 128.382 101.952 130.412 101.952Z" stroke="#FBB30B" stroke-width="2.75714" stroke-miterlimit="10"/>
<path d="M151.32 109.305C153.477 109.305 155.226 107.659 155.226 105.629C155.226 103.598 153.477 101.952 151.32 101.952C149.163 101.952 147.414 103.598 147.414 105.629C147.414 107.659 149.163 109.305 151.32 109.305Z" stroke="#FBB30B" stroke-width="2.75714" stroke-miterlimit="10"/>
<path d="M151.09 130.902C153.121 130.902 154.767 129.051 154.767 126.767C154.767 124.483 153.121 122.631 151.09 122.631C149.06 122.631 147.414 124.483 147.414 126.767C147.414 129.051 149.06 130.902 151.09 130.902Z" stroke="#FBB30B" stroke-width="2.75714" stroke-miterlimit="10"/>
<path d="M137.075 121.712C140.755 121.712 143.738 118.832 143.738 115.279C143.738 111.726 140.755 108.845 137.075 108.845C133.395 108.845 130.412 111.726 130.412 115.279C130.412 118.832 133.395 121.712 137.075 121.712Z" stroke="#FBB30B" stroke-width="2.75714" stroke-miterlimit="10"/>
<path d="M147.874 93.6809C150.158 93.6809 152.01 91.9322 152.01 89.775C152.01 87.6178 150.158 85.869 147.874 85.869C145.59 85.869 143.738 87.6178 143.738 89.775C143.738 91.9322 145.59 93.6809 147.874 93.6809Z" stroke="#FBB30B" stroke-width="2.75714" stroke-miterlimit="10"/>
<path d="M118.694 115.279C120.851 115.279 122.6 113.633 122.6 111.602C122.6 109.572 120.851 107.926 118.694 107.926C116.537 107.926 114.788 109.572 114.788 111.602C114.788 113.633 116.537 115.279 118.694 115.279Z" stroke="#FBB30B" stroke-width="2.75714" stroke-miterlimit="10"/>
<path d="M110.882 103.79C113.039 103.79 114.788 102.042 114.788 99.8845C114.788 97.7273 113.039 95.9785 110.882 95.9785C108.725 95.9785 106.976 97.7273 106.976 99.8845C106.976 102.042 108.725 103.79 110.882 103.79Z" stroke="#FBB30B" stroke-width="2.75714" stroke-miterlimit="10"/>
<path d="M97.7857 121.712C98.2933 121.712 98.7047 121.198 98.7047 120.563C98.7047 119.929 98.2933 119.414 97.7857 119.414C97.2781 119.414 96.8666 119.929 96.8666 120.563C96.8666 121.198 97.2781 121.712 97.7857 121.712Z" fill="#FBB30B"/>
<path d="M155.915 82.6524C156.55 82.6524 157.064 82.138 157.064 81.5036C157.064 80.8691 156.55 80.3548 155.915 80.3548C155.281 80.3548 154.767 80.8691 154.767 81.5036C154.767 82.138 155.281 82.6524 155.915 82.6524Z" fill="#FBB30B"/>
<path d="M141.9 168.583C141.9 168.583 146.258 159.561 165.447 143.127C165.946 142.703 166.453 142.262 166.909 141.805L230.909 80.3548H253.105L180.315 150.782L141.9 168.583Z" fill="#FBB30B"/>
<path d="M178.892 146.067C155.416 146.067 136.386 165.611 136.386 189.721C136.386 213.832 155.416 233.376 178.892 233.376C202.367 233.376 221.398 213.832 221.398 189.721C221.398 165.611 202.367 146.067 178.892 146.067ZM178.892 218.252C163.549 218.252 151.112 205.479 151.112 189.721C151.112 173.964 163.549 161.191 178.892 161.191C194.234 161.191 206.671 173.964 206.671 189.721C206.671 205.479 194.241 218.252 178.892 218.252Z" fill="#FBB30B"/>
</svg>
