<svg id="eFjhVl6E7QW1" xmlns="http://www.w3.org/2000/svg" xmlns:xlink="http://www.w3.org/1999/xlink" viewBox="0 0 660 114" shape-rendering="geometricPrecision" text-rendering="geometricPrecision" style="background-color:transparent"><defs><linearGradient id="eFjhVl6E7QW5-fill" x1="195.68" y1="19.0969" x2="215.317" y2="105.901" spreadMethod="pad" gradientUnits="userSpaceOnUse" gradientTransform="translate(0 0)"><stop id="eFjhVl6E7QW5-fill-0" offset="0%" stop-color="#d65656"/><stop id="eFjhVl6E7QW5-fill-1" offset="100%" stop-color="#5672d6"/></linearGradient><linearGradient id="eFjhVl6E7QW10-fill" x1="131.272" y1="23.3404" x2="103.426" y2="65.358" spreadMethod="pad" gradientUnits="userSpaceOnUse" gradientTransform="translate(0 0)"><stop id="eFjhVl6E7QW10-fill-0" offset="0%" stop-color="#56d6bf"/><stop id="eFjhVl6E7QW10-fill-1" offset="100%" stop-color="#5672d6"/></linearGradient><radialGradient id="eFjhVl6E7QW13-fill" cx="0" cy="0" r="13.085846" spreadMethod="reflect" gradientUnits="userSpaceOnUse" gradientTransform="translate(153.237426 43.245938)"><stop id="eFjhVl6E7QW13-fill-0" offset="0%" stop-color="#dd9f9f"/><stop id="eFjhVl6E7QW13-fill-1" offset="100%" stop-color="#c85959"/></radialGradient></defs><path d="M0.090909,107v-93.0909h36.727291c7.0606,0,13.0757,1.3485,18.0454,4.0454c4.9697,2.6667,8.7576,6.3788,11.3637,11.1364c2.6363,4.7273,3.9545,10.1818,3.9545,16.3636s-1.3333,11.6364-4,16.3637c-2.6666,4.7273-6.5303,8.4091-11.5909,11.0454-5.0303,2.6364-11.1212,3.9546-18.2727,3.9546h-23.4091v-15.7727h20.2273c3.7878,0,6.9091-.6516,9.3636-1.9546c2.4849-1.3333,4.3333-3.1667,5.5455-5.5c1.2424-2.3636,1.8636-5.0758,1.8636-8.1364c0-3.0909-.6212-5.7878-1.8636-8.0909-1.2122-2.3333-3.0606-4.1363-5.5455-5.4091C40.0152,30.6515,36.8636,30,33.0455,30h-13.2728v77h-19.681791ZM82.9659,107v-93.0909h36.7271c7.03,0,13.03,1.2576,18,3.7727c5,2.4849,8.803,6.0152,11.409,10.5909c2.637,4.5455,3.955,9.894,3.955,16.0455c0,6.1818-1.334,11.5-4,15.9545-2.667,4.4243-6.53,7.8182-11.591,10.1818C132.436,72.8182,126.345,74,119.193,74h-24.5907v-15.8182h21.4087c3.758,0,6.879-.5151,9.364-1.5454s4.333-2.5758,5.545-4.6364c1.243-2.0606,1.864-4.6212,1.864-7.6818c0-3.0909-.621-5.697-1.864-7.8182-1.212-2.1212-3.075-3.7273-5.59-4.8182C122.845,30.5606,119.708,30,115.92,30h-13.272v77h-19.6821ZM133.239,64.6364L156.375,107h-21.727L112.011,64.6364h21.228ZM293.114,13.9091h19.454v64.9091c0,6-1.348,11.2121-4.045,15.6363-2.667,4.4243-6.379,7.8335-11.137,10.2275-4.757,2.394-10.288,3.591-16.591,3.591-5.606,0-10.697-.985-15.272-2.955-4.546-2-8.152-5.03-10.818-9.0907-2.667-4.0909-3.985-9.2273-3.955-15.4091h19.591c.061,2.4545.561,4.5606,1.5,6.3182.97,1.7272,2.288,3.0606,3.954,4c1.697.9091,3.697,1.3636,6,1.3636c2.425,0,4.47-.5152,6.137-1.5455c1.697-1.0606,2.985-2.606,3.863-4.6363.879-2.0303,1.319-4.5303,1.319-7.5v-64.9091ZM328.841,107v-93.0909h62.727v16.2273h-43.045v22.1818h39.818v16.2273h-39.818v22.2272h43.227v16.2273h-62.909ZM489.352,46.5h-19.909c-.363-2.5758-1.106-4.8636-2.227-6.8636-1.121-2.0303-2.561-3.7576-4.318-5.1819-1.758-1.4242-3.788-2.5151-6.091-3.2727-2.273-.7576-4.743-1.1363-7.409-1.1363-4.818,0-9.015,1.1969-12.591,3.5909C433.231,36,430.458,39.4545,428.489,44c-1.97,4.5151-2.955,10-2.955,16.4545c0,6.6364.985,12.2122,2.955,16.7273c2,4.5152,4.788,7.9243,8.363,10.2273c3.576,2.303,7.712,3.4545,12.409,3.4545c2.637,0,5.076-.3484,7.319-1.0454c2.272-.697,4.287-1.7121,6.045-3.0455c1.758-1.3636,3.212-3.0151,4.364-4.9545c1.181-1.9394,2-4.1515,2.454-6.6364l19.909.0909c-.515,4.2728-1.803,8.394-3.863,12.3637-2.031,3.9394-4.773,7.4697-8.228,10.5909-3.424,3.0907-7.515,5.5457-12.272,7.3637-4.728,1.788-10.076,2.682-16.046,2.682-8.303,0-15.727-1.879-22.273-5.637-6.515-3.7572-11.666-9.1966-15.454-16.3178-3.758-7.1212-5.636-15.7424-5.636-25.8637c0-10.1515,1.909-18.7878,5.727-25.909s9-12.5455,15.545-16.2728c6.546-3.7576,13.909-5.6363,22.091-5.6363c5.394,0,10.394.7575,15,2.2727c4.637,1.5151,8.743,3.7273,12.318,6.6363c3.576,2.8788,6.485,6.4091,8.728,10.591c2.272,4.1818,3.727,8.9697,4.363,14.3636ZM499.92,30.1364v-16.2273h76.455v16.2273h-28.5v76.8636h-19.455v-76.8636h-28.5ZM639.466,40.6818c-.364-3.6667-1.924-6.5151-4.682-8.5454-2.757-2.0303-6.5-3.0455-11.227-3.0455-3.212,0-5.924.4546-8.137,1.3636-2.212.8788-3.909,2.1061-5.09,3.6819-1.152,1.5757-1.728,3.3636-1.728,5.3636-.06,1.6667.288,3.1212,1.046,4.3636.788,1.2425,1.863,2.3182,3.227,3.2273c1.364.8788,2.939,1.6515,4.727,2.3182c1.788.6364,3.697,1.1818,5.728,1.6364l8.363,2c4.061.909,7.788,2.1212,11.182,3.6363s6.333,3.3788,8.818,5.5909s4.409,4.8182,5.773,7.8182c1.394,3,2.106,6.4394,2.136,10.3182-.03,5.697-1.485,10.6364-4.363,14.8182-2.849,4.1515-6.97,7.3787-12.364,9.6817-5.364,2.273-11.833,3.409-19.409,3.409-7.515,0-14.061-1.151-19.636-3.454-5.546-2.303-9.879-5.7125-13-10.2276-3.091-4.5455-4.713-10.1667-4.864-16.8637h19.045c.212,3.1212,1.106,5.7273,2.682,7.8182c1.606,2.0606,3.743,3.6212,6.409,4.6818c2.697,1.0303,5.743,1.5455,9.137,1.5455c3.333,0,6.227-.4849,8.681-1.4546c2.485-.9697,4.41-2.3181,5.773-4.0454c1.364-1.7273,2.046-3.7121,2.046-5.9546c0-2.0909-.622-3.8484-1.864-5.2727-1.212-1.4242-3-2.6364-5.364-3.6364-2.333-1-5.197-1.909-8.591-2.7272l-10.136-2.5455c-7.848-1.9091-14.045-4.8939-18.591-8.9545-4.545-4.0606-6.803-9.5303-6.773-16.4091-.03-5.6364,1.47-10.5606,4.5-14.7727c3.061-4.2122,7.258-7.5,12.591-9.8637c5.334-2.3636,11.394-3.5454,18.182-3.5454c6.909,0,12.94,1.1818,18.091,3.5454c5.182,2.3637,9.212,5.6515,12.091,9.8637s4.364,9.0909,4.455,14.6363h-18.864Z" fill="#fff"/><g id="eFjhVl6E7QW3" clip-path="url(#eFjhVl6E7QW6)"><g><path d="M242.206,45.1781l-4.601,1.0409c-1.61-3.141-3.652-5.9621-6.039-8.4251l2.558-4.0641c.691-1.0952.913-2.3977.626-3.6628-.285-1.2632-1.05-2.3446-2.141-3.0347l-6.759-4.2606c-2.194-1.3855-5.318-.6767-6.695,1.5124l-2.672,4.2071c-3.197-1.0075-6.513-1.5912-10.034-1.6522l-1.114-4.9244c-.591-2.6114-3.163-4.2863-5.774-3.6955l-7.795,1.7633c-2.611.5907-4.18,3.2024-3.589,5.8138l1.113,4.9225c-3.15,1.5682-5.91,3.5284-8.366,5.8167l-4.221-2.6476c-2.191-1.3859-5.318-.6767-6.706,1.515l-4.263,6.7543c-.685,1.0817-.913,2.4155-.631,3.6617.286,1.2632,1.044,2.3422,2.141,3.0328l4.06,2.5749c-1.093,3.2503-1.723,6.6758-1.822,10.2034l-4.604,1.0414c-2.613.5912-4.247,3.168-3.658,5.7738l1.763,7.7888c.591,2.6133,3.164,4.1886,5.777,3.5974l4.604-1.0414c1.608,3.1415,3.653,5.9815,6.037,8.4454l-2.555,4.0773c-.693,1.0956-.914,2.4019-.628,3.667.287,1.2651,1.05,2.3488,2.145,3.0399l6.76,4.2645c1.098.691,2.396.913,3.659.627c1.264-.286,2.342-1.048,3.035-2.141l2.686-4.2124c3.201,1.0086,6.536,1.588,10.055,1.6512l1.112,4.9172c.591,2.611,3.122,4.252,5.733,3.661l7.795-1.763c2.611-.591,4.221-3.168,3.631-5.7798l-1.113-4.9188c3.152-1.5705,5.893-3.5245,8.349-5.8128l4.205,2.6453c1.098.6944,2.398.9162,3.665.6296c1.266-.2862,2.345-1.0485,3.037-2.1418l4.268-6.7552c.691-1.0933.911-2.3954.629-3.6594-.287-1.2651-1.05-2.3409-2.144-3.0343l-4.06-2.5946c1.09-3.2517,1.714-6.6976,1.816-10.2219l4.603-1.0414c2.612-.5907,4.294-3.1289,3.703-5.7422l-1.762-7.7888c-.587-2.6062-3.207-4.2206-5.819-3.6298ZM208.839,77.3523c-8.266,1.8701-16.472-3.2543-18.324-11.4397-1.853-8.191,3.35-16.3388,11.617-18.2089c8.268-1.8705,16.475,3.2436,18.328,11.4347c1.851,8.1876-3.352,16.3434-11.621,18.2139Z" fill="url(#eFjhVl6E7QW5-fill)"/></g><clipPath id="eFjhVl6E7QW6"><rect width="89" height="89" rx="0" ry="0" transform="matrix(.988308-.152468 0.152468 0.988308 154.735 25.3051)" fill="#fff"/></clipPath></g><g id="eFjhVl6E7QW8" clip-path="url(#eFjhVl6E7QW11)"><g><path d="M138.808,52.5949l-2.227-1.4761c.656-1.8885,1.011-3.8285,1.085-5.7698l2.665-.5437c.719-.1458,1.339-.5651,1.745-1.1774.405-.6115.548-1.3478.404-2.0645l-.902-4.4348c-.292-1.4401-1.805-2.4417-3.24-2.1482l-2.768.5528c-.839-1.7032-1.898-3.2889-3.252-4.7541l1.58-2.3837c.838-1.264.517-2.9725-.747-3.8102l-3.773-2.5005c-1.264-.8377-2.947-.4575-3.785.8065l-1.579,2.3828c-1.875-.6758-3.758-1.0383-5.656-1.1478l-.569-2.7643c-.29-1.4395-1.804-2.4417-3.245-2.1519l-4.434.8986c-.71.1434-1.346.5721-1.745,1.1753-.406.6115-.551,1.3441-.404,2.0636l.535,2.6698c-1.758.825-3.407,1.9079-4.89,3.2482l-2.228-1.4768c-1.265-.8383-2.9593-.4986-3.7952.7627l-2.4986,3.7702c-.8384,1.265-.4759,2.9351.7891,3.7734l2.2283,1.4767c-.6566,1.8879-1.0183,3.837-1.0939,5.7771l-2.6692.5502c-.7198.1452-1.3408.5662-1.7467,1.1786s-.5507,1.349-.4049,2.0678l.9008,4.4367c.1467.7194.5641,1.338,1.1755,1.7433.6115.4052,1.3454.5482,2.0645.404l2.7753-.5495c.8404,1.7052,1.909,3.2971,3.26,4.7625l-1.577,2.38c-.8377,1.2641-.519,2.9422.745,3.7799l3.773,2.5004c1.264.8378,2.95.488,3.787-.7761l1.578-2.3809c1.877.6755,3.75,1.0329,5.648,1.1424l.563,2.7567c.146.7212.564,1.3405,1.177,1.7469.613.4059,1.347.5495,2.066.4046l4.435-.8973c.719-.1449,1.337-.5648,1.745-1.175.405-.6124.547-1.346.403-2.0651l-.528-2.6778c1.758-.8265,3.413-1.92,4.895-3.2579L133.302,60.9c1.264.8377,2.961.5329,3.8-.732l2.498-3.7702c.837-1.2607.472-2.9652-.792-3.8029Zm-26.231-1.0642c-4.002-2.6519-5.116-8.0167-2.49-11.9788c2.627-3.9648,7.999-5.0244,12.001-2.3726c4.002,2.6525,5.121,8.0139,2.494,11.9788-2.628,3.9624-8.003,5.0251-12.005,2.3726Z" fill="url(#eFjhVl6E7QW10-fill)"/></g><clipPath id="eFjhVl6E7QW11"><rect width="64" height="64" rx="0" ry="0" transform="matrix(.870242 0.492624-.492624 0.870242 106.916 0.388275)" fill="#fff"/></clipPath></g><path id="eFjhVl6E7QW13" d="M150.787,30.8652c.028-.5516.499-.9755,1.05-.947l5.025.2601c.551.0285.975.4988.947,1.0503l-.26,5.0247c-.004.0765-.017.1507-.037.2215c2.554,1.5397,4.198,4.4011,4.033,7.5874-.015.2864-.044.5688-.086.8463l3.98,2.5025c.468.2939.609.9112.315,1.3788l-2.678,4.2596c-.294.4676-.911.6083-1.379.3144l-4.142-2.6041c-1.387.8474-3.035,1.2998-4.78,1.2095-2.057-.1065-3.901-.9487-5.291-2.2584l-4.083,2.0112c-.495.2441-1.095.0403-1.339-.4551l-2.223-4.5134c-.244-.4954-.041-1.0949.455-1.339l4.513-2.2235c.021-.0102.042-.0196.063-.0283.196-3.504,2.528-6.3857,5.666-7.4456l.251-4.8519Z" transform="translate(.622396 3.733071)" clip-rule="evenodd" fill="url(#eFjhVl6E7QW13-fill)"/>

</svg>
